<svg width="1000" height="900" viewBox="0 0 1350 950" fill="none" xmlns="http://www.w3.org/2000/svg">
<g clip-path="url(#clip0_9_812)">
<rect width="1350" height="950" rx="10" fill="url(#paint0_linear_9_812)"/>
<g filter="url(#filter0_i_9_812)">
<path opacity="0.1" d="M355 713H313C298.333 713 291 705.667 291 691V668C251.667 664.667 225.667 654.333 213 637C199.667 617.667 193 584.333 193 537V448C193 433.333 200.333 426 215 426H269C283.667 426 291 433.333 291 448V521C291 539.667 293 552.333 297 559C301.667 565 311 568 325 568H339C353 568 362 565 366 559C370 552.333 372 539.667 372 521V490C372 467.333 367.667 449.333 359 436C351.667 423.333 331 403 297 375C253 339 224.667 310 212 288C199.333 265.333 193 235 193 197V139C193 91 199.667 58 213 40C227 21.3333 253 11 291 8.99998V-15C291 -29.6667 298.333 -37 313 -37H355C369.667 -37 377 -29.6667 377 -15V8.99998C415.667 10.3333 442 20.3333 456 39C470 57.6666 477 91 477 139V215C477 229.667 469.667 237 455 237H401C386.333 237 379 229.667 379 215V155C379 136.333 376.667 124 372 118C368 111.333 359 108 345 108H331C317 108 307.667 111.333 303 118C299 124 297 136.333 297 155V187C297 209.667 301.333 227.667 310 241C318.667 254.333 339.667 274.667 373 302C415.667 336.667 443.667 365.667 457 389C470.333 412.333 477 442.667 477 480V537C477 585 470 618.333 456 637C442 655.667 415.667 666 377 668V691C377 705.667 369.667 713 355 713Z" fill="#62FF00"/>
<path opacity="0.1" d="M589 1037.5H568C560.667 1037.5 557 1033.83 557 1026.5V1015C537.333 1013.33 524.333 1008.17 518 999.5C511.333 989.833 508 973.167 508 949.5V905C508 897.667 511.667 894 519 894H546C553.333 894 557 897.667 557 905V941.5C557 950.833 558 957.167 560 960.5C562.333 963.5 567 965 574 965H581C588 965 592.5 963.5 594.5 960.5C596.5 957.167 597.5 950.833 597.5 941.5V926C597.5 914.667 595.333 905.667 591 899C587.333 892.667 577 882.5 560 868.5C538 850.5 523.833 836 517.5 825C511.167 813.667 508 798.5 508 779.5V750.5C508 726.5 511.333 710 518 701C525 691.667 538 686.5 557 685.5V673.5C557 666.167 560.667 662.5 568 662.5H589C596.333 662.5 600 666.167 600 673.5V685.5C619.333 686.167 632.5 691.167 639.5 700.5C646.5 709.833 650 726.5 650 750.5V788.5C650 795.833 646.333 799.5 639 799.5H612C604.667 799.5 601 795.833 601 788.5V758.5C601 749.167 599.833 743 597.5 740C595.5 736.667 591 735 584 735H577C570 735 565.333 736.667 563 740C561 743 560 749.167 560 758.5V774.5C560 785.833 562.167 794.833 566.5 801.5C570.833 808.167 581.333 818.333 598 832C619.333 849.333 633.333 863.833 640 875.5C646.667 887.167 650 902.333 650 921V949.5C650 973.5 646.5 990.167 639.5 999.5C632.5 1008.83 619.333 1014 600 1015V1026.5C600 1033.83 596.333 1037.5 589 1037.5Z" fill="#62FF00"/>
<path opacity="0.6" d="M56.4 891H48C45.0667 891 43.6 889.533 43.6 886.6V882C35.7333 881.333 30.5333 879.267 28 875.8C25.3333 871.933 24 865.267 24 855.8V838C24 835.067 25.4667 833.6 28.4 833.6H39.2C42.1333 833.6 43.6 835.067 43.6 838V852.6C43.6 856.333 44 858.867 44.8 860.2C45.7333 861.4 47.6 862 50.4 862H53.2C56 862 57.8 861.4 58.6 860.2C59.4 858.867 59.8 856.333 59.8 852.6V846.4C59.8 841.867 58.9333 838.267 57.2 835.6C55.7333 833.067 51.6 829 44.8 823.4C36 816.2 30.3333 810.4 27.8 806C25.2667 801.467 24 795.4 24 787.8V776.2C24 766.6 25.3333 760 28 756.4C30.8 752.667 36 750.6 43.6 750.2V745.4C43.6 742.467 45.0667 741 48 741H56.4C59.3333 741 60.8 742.467 60.8 745.4V750.2C68.5333 750.467 73.8 752.467 76.6 756.2C79.4 759.933 80.8 766.6 80.8 776.2V791.4C80.8 794.333 79.3333 795.8 76.4 795.8H65.6C62.6667 795.8 61.2 794.333 61.2 791.4V779.4C61.2 775.667 60.7333 773.2 59.8 772C59 770.667 57.2 770 54.4 770H51.6C48.8 770 46.9333 770.667 46 772C45.2 773.2 44.8 775.667 44.8 779.4V785.8C44.8 790.333 45.6667 793.933 47.4 796.6C49.1333 799.267 53.3333 803.333 60 808.8C68.5333 815.733 74.1333 821.533 76.8 826.2C79.4667 830.867 80.8 836.933 80.8 844.4V855.8C80.8 865.4 79.4 872.067 76.6 875.8C73.8 879.533 68.5333 881.6 60.8 882V886.6C60.8 889.533 59.3333 891 56.4 891Z" fill="url(#paint1_linear_9_812)"/>
<path opacity="0.6" d="M148.4 821H140C137.067 821 135.6 819.533 135.6 816.6V812C127.733 811.333 122.533 809.267 120 805.8C117.333 801.933 116 795.267 116 785.8V768C116 765.067 117.467 763.6 120.4 763.6H131.2C134.133 763.6 135.6 765.067 135.6 768V782.6C135.6 786.333 136 788.867 136.8 790.2C137.733 791.4 139.6 792 142.4 792H145.2C148 792 149.8 791.4 150.6 790.2C151.4 788.867 151.8 786.333 151.8 782.6V776.4C151.8 771.867 150.933 768.267 149.2 765.6C147.733 763.067 143.6 759 136.8 753.4C128 746.2 122.333 740.4 119.8 736C117.267 731.467 116 725.4 116 717.8V706.2C116 696.6 117.333 690 120 686.4C122.8 682.667 128 680.6 135.6 680.2V675.4C135.6 672.467 137.067 671 140 671H148.4C151.333 671 152.8 672.467 152.8 675.4V680.2C160.533 680.467 165.8 682.467 168.6 686.2C171.4 689.933 172.8 696.6 172.8 706.2V721.4C172.8 724.333 171.333 725.8 168.4 725.8H157.6C154.667 725.8 153.2 724.333 153.2 721.4V709.4C153.2 705.667 152.733 703.2 151.8 702C151 700.667 149.2 700 146.4 700H143.6C140.8 700 138.933 700.667 138 702C137.2 703.2 136.8 705.667 136.8 709.4V715.8C136.8 720.333 137.667 723.933 139.4 726.6C141.133 729.267 145.333 733.333 152 738.8C160.533 745.733 166.133 751.533 168.8 756.2C171.467 760.867 172.8 766.933 172.8 774.4V785.8C172.8 795.4 171.4 802.067 168.6 805.8C165.8 809.533 160.533 811.6 152.8 812V816.6C152.8 819.533 151.333 821 148.4 821Z" fill="url(#paint2_linear_9_812)"/>
<path opacity="0.1" d="M54.4 533H46C43.0667 533 41.6 531.533 41.6 528.6V524C33.7333 523.333 28.5333 521.267 26 517.8C23.3333 513.933 22 507.267 22 497.8V480C22 477.067 23.4667 475.6 26.4 475.6H37.2C40.1333 475.6 41.6 477.067 41.6 480V494.6C41.6 498.333 42 500.867 42.8 502.2C43.7333 503.4 45.6 504 48.4 504H51.2C54 504 55.8 503.4 56.6 502.2C57.4 500.867 57.8 498.333 57.8 494.6V488.4C57.8 483.867 56.9333 480.267 55.2 477.6C53.7333 475.067 49.6 471 42.8 465.4C34 458.2 28.3333 452.4 25.8 448C23.2667 443.467 22 437.4 22 429.8V418.2C22 408.6 23.3333 402 26 398.4C28.8 394.667 34 392.6 41.6 392.2V387.4C41.6 384.467 43.0667 383 46 383H54.4C57.3333 383 58.8 384.467 58.8 387.4V392.2C66.5333 392.467 71.8 394.467 74.6 398.2C77.4 401.933 78.8 408.6 78.8 418.2V433.4C78.8 436.333 77.3333 437.8 74.4 437.8H63.6C60.6667 437.8 59.2 436.333 59.2 433.4V421.4C59.2 417.667 58.7333 415.2 57.8 414C57 412.667 55.2 412 52.4 412H49.6C46.8 412 44.9333 412.667 44 414C43.2 415.2 42.8 417.667 42.8 421.4V427.8C42.8 432.333 43.6667 435.933 45.4 438.6C47.1333 441.267 51.3333 445.333 58 450.8C66.5333 457.733 72.1333 463.533 74.8 468.2C77.4667 472.867 78.8 478.933 78.8 486.4V497.8C78.8 507.4 77.4 514.067 74.6 517.8C71.8 521.533 66.5333 523.6 58.8 524V528.6C58.8 531.533 57.3333 533 54.4 533Z" fill="#62FF00"/>
<path opacity="0.1" d="M242.4 891H234C231.067 891 229.6 889.533 229.6 886.6V882C221.733 881.333 216.533 879.267 214 875.8C211.333 871.933 210 865.267 210 855.8V838C210 835.067 211.467 833.6 214.4 833.6H225.2C228.133 833.6 229.6 835.067 229.6 838V852.6C229.6 856.333 230 858.867 230.8 860.2C231.733 861.4 233.6 862 236.4 862H239.2C242 862 243.8 861.4 244.6 860.2C245.4 858.867 245.8 856.333 245.8 852.6V846.4C245.8 841.867 244.933 838.267 243.2 835.6C241.733 833.067 237.6 829 230.8 823.4C222 816.2 216.333 810.4 213.8 806C211.267 801.467 210 795.4 210 787.8V776.2C210 766.6 211.333 760 214 756.4C216.8 752.667 222 750.6 229.6 750.2V745.4C229.6 742.467 231.067 741 234 741H242.4C245.333 741 246.8 742.467 246.8 745.4V750.2C254.533 750.467 259.8 752.467 262.6 756.2C265.4 759.933 266.8 766.6 266.8 776.2V791.4C266.8 794.333 265.333 795.8 262.4 795.8H251.6C248.667 795.8 247.2 794.333 247.2 791.4V779.4C247.2 775.667 246.733 773.2 245.8 772C245 770.667 243.2 770 240.4 770H237.6C234.8 770 232.933 770.667 232 772C231.2 773.2 230.8 775.667 230.8 779.4V785.8C230.8 790.333 231.667 793.933 233.4 796.6C235.133 799.267 239.333 803.333 246 808.8C254.533 815.733 260.133 821.533 262.8 826.2C265.467 830.867 266.8 836.933 266.8 844.4V855.8C266.8 865.4 265.4 872.067 262.6 875.8C259.8 879.533 254.533 881.6 246.8 882V886.6C246.8 889.533 245.333 891 242.4 891Z" fill="#62FF00"/>
<path opacity="0.1" d="M624.4 565H616C613.067 565 611.6 563.533 611.6 560.6V556C603.733 555.333 598.533 553.267 596 549.8C593.333 545.933 592 539.267 592 529.8V512C592 509.067 593.467 507.6 596.4 507.6H607.2C610.133 507.6 611.6 509.067 611.6 512V526.6C611.6 530.333 612 532.867 612.8 534.2C613.733 535.4 615.6 536 618.4 536H621.2C624 536 625.8 535.4 626.6 534.2C627.4 532.867 627.8 530.333 627.8 526.6V520.4C627.8 515.867 626.933 512.267 625.2 509.6C623.733 507.067 619.6 503 612.8 497.4C604 490.2 598.333 484.4 595.8 480C593.267 475.467 592 469.4 592 461.8V450.2C592 440.6 593.333 434 596 430.4C598.8 426.667 604 424.6 611.6 424.2V419.4C611.6 416.467 613.067 415 616 415H624.4C627.333 415 628.8 416.467 628.8 419.4V424.2C636.533 424.467 641.8 426.467 644.6 430.2C647.4 433.933 648.8 440.6 648.8 450.2V465.4C648.8 468.333 647.333 469.8 644.4 469.8H633.6C630.667 469.8 629.2 468.333 629.2 465.4V453.4C629.2 449.667 628.733 447.2 627.8 446C627 444.667 625.2 444 622.4 444H619.6C616.8 444 614.933 444.667 614 446C613.2 447.2 612.8 449.667 612.8 453.4V459.8C612.8 464.333 613.667 467.933 615.4 470.6C617.133 473.267 621.333 477.333 628 482.8C636.533 489.733 642.133 495.533 644.8 500.2C647.467 504.867 648.8 510.933 648.8 518.4V529.8C648.8 539.4 647.4 546.067 644.6 549.8C641.8 553.533 636.533 555.6 628.8 556V560.6C628.8 563.533 627.333 565 624.4 565Z" fill="#62FF00"/>
<path opacity="0.6" d="M814.4 680H806C803.067 680 801.6 678.533 801.6 675.6V671C793.733 670.333 788.533 668.267 786 664.8C783.333 660.933 782 654.267 782 644.8V627C782 624.067 783.467 622.6 786.4 622.6H797.2C800.133 622.6 801.6 624.067 801.6 627V641.6C801.6 645.333 802 647.867 802.8 649.2C803.733 650.4 805.6 651 808.4 651H811.2C814 651 815.8 650.4 816.6 649.2C817.4 647.867 817.8 645.333 817.8 641.6V635.4C817.8 630.867 816.933 627.267 815.2 624.6C813.733 622.067 809.6 618 802.8 612.4C794 605.2 788.333 599.4 785.8 595C783.267 590.467 782 584.4 782 576.8V565.2C782 555.6 783.333 549 786 545.4C788.8 541.667 794 539.6 801.6 539.2V534.4C801.6 531.467 803.067 530 806 530H814.4C817.333 530 818.8 531.467 818.8 534.4V539.2C826.533 539.467 831.8 541.467 834.6 545.2C837.4 548.933 838.8 555.6 838.8 565.2V580.4C838.8 583.333 837.333 584.8 834.4 584.8H823.6C820.667 584.8 819.2 583.333 819.2 580.4V568.4C819.2 564.667 818.733 562.2 817.8 561C817 559.667 815.2 559 812.4 559H809.6C806.8 559 804.933 559.667 804 561C803.2 562.2 802.8 564.667 802.8 568.4V574.8C802.8 579.333 803.667 582.933 805.4 585.6C807.133 588.267 811.333 592.333 818 597.8C826.533 604.733 832.133 610.533 834.8 615.2C837.467 619.867 838.8 625.933 838.8 633.4V644.8C838.8 654.4 837.4 661.067 834.6 664.8C831.8 668.533 826.533 670.6 818.8 671V675.6C818.8 678.533 817.333 680 814.4 680Z" fill="url(#paint3_linear_9_812)"/>
<path opacity="0.1" d="M1006.4 795H998C995.067 795 993.6 793.533 993.6 790.6V786C985.733 785.333 980.533 783.267 978 779.8C975.333 775.933 974 769.267 974 759.8V742C974 739.067 975.467 737.6 978.4 737.6H989.2C992.133 737.6 993.6 739.067 993.6 742V756.6C993.6 760.333 994 762.867 994.8 764.2C995.733 765.4 997.6 766 1000.4 766H1003.2C1006 766 1007.8 765.4 1008.6 764.2C1009.4 762.867 1009.8 760.333 1009.8 756.6V750.4C1009.8 745.867 1008.93 742.267 1007.2 739.6C1005.73 737.067 1001.6 733 994.8 727.4C986 720.2 980.333 714.4 977.8 710C975.267 705.467 974 699.4 974 691.8V680.2C974 670.6 975.333 664 978 660.4C980.8 656.667 986 654.6 993.6 654.2V649.4C993.6 646.467 995.067 645 998 645H1006.4C1009.33 645 1010.8 646.467 1010.8 649.4V654.2C1018.53 654.467 1023.8 656.467 1026.6 660.2C1029.4 663.933 1030.8 670.6 1030.8 680.2V695.4C1030.8 698.333 1029.33 699.8 1026.4 699.8H1015.6C1012.67 699.8 1011.2 698.333 1011.2 695.4V683.4C1011.2 679.667 1010.73 677.2 1009.8 676C1009 674.667 1007.2 674 1004.4 674H1001.6C998.8 674 996.933 674.667 996 676C995.2 677.2 994.8 679.667 994.8 683.4V689.8C994.8 694.333 995.667 697.933 997.4 700.6C999.133 703.267 1003.33 707.333 1010 712.8C1018.53 719.733 1024.13 725.533 1026.8 730.2C1029.47 734.867 1030.8 740.933 1030.8 748.4V759.8C1030.8 769.4 1029.4 776.067 1026.6 779.8C1023.8 783.533 1018.53 785.6 1010.8 786V790.6C1010.8 793.533 1009.33 795 1006.4 795Z" fill="#62FF00"/>
<path opacity="0.1" d="M1006.4 975H998C995.067 975 993.6 973.533 993.6 970.6V966C985.733 965.333 980.533 963.267 978 959.8C975.333 955.933 974 949.267 974 939.8V922C974 919.067 975.467 917.6 978.4 917.6H989.2C992.133 917.6 993.6 919.067 993.6 922V936.6C993.6 940.333 994 942.867 994.8 944.2C995.733 945.4 997.6 946 1000.4 946H1003.2C1006 946 1007.8 945.4 1008.6 944.2C1009.4 942.867 1009.8 940.333 1009.8 936.6V930.4C1009.8 925.867 1008.93 922.267 1007.2 919.6C1005.73 917.067 1001.6 913 994.8 907.4C986 900.2 980.333 894.4 977.8 890C975.267 885.467 974 879.4 974 871.8V860.2C974 850.6 975.333 844 978 840.4C980.8 836.667 986 834.6 993.6 834.2V829.4C993.6 826.467 995.067 825 998 825H1006.4C1009.33 825 1010.8 826.467 1010.8 829.4V834.2C1018.53 834.467 1023.8 836.467 1026.6 840.2C1029.4 843.933 1030.8 850.6 1030.8 860.2V875.4C1030.8 878.333 1029.33 879.8 1026.4 879.8H1015.6C1012.67 879.8 1011.2 878.333 1011.2 875.4V863.4C1011.2 859.667 1010.73 857.2 1009.8 856C1009 854.667 1007.2 854 1004.4 854H1001.6C998.8 854 996.933 854.667 996 856C995.2 857.2 994.8 859.667 994.8 863.4V869.8C994.8 874.333 995.667 877.933 997.4 880.6C999.133 883.267 1003.33 887.333 1010 892.8C1018.53 899.733 1024.13 905.533 1026.8 910.2C1029.47 914.867 1030.8 920.933 1030.8 928.4V939.8C1030.8 949.4 1029.4 956.067 1026.6 959.8C1023.8 963.533 1018.53 965.6 1010.8 966V970.6C1010.8 973.533 1009.33 975 1006.4 975Z" fill="#62FF00"/>
<path opacity="0.1" d="M148.4 603H140C137.067 603 135.6 601.533 135.6 598.6V594C127.733 593.333 122.533 591.267 120 587.8C117.333 583.933 116 577.267 116 567.8V550C116 547.067 117.467 545.6 120.4 545.6H131.2C134.133 545.6 135.6 547.067 135.6 550V564.6C135.6 568.333 136 570.867 136.8 572.2C137.733 573.4 139.6 574 142.4 574H145.2C148 574 149.8 573.4 150.6 572.2C151.4 570.867 151.8 568.333 151.8 564.6V558.4C151.8 553.867 150.933 550.267 149.2 547.6C147.733 545.067 143.6 541 136.8 535.4C128 528.2 122.333 522.4 119.8 518C117.267 513.467 116 507.4 116 499.8V488.2C116 478.6 117.333 472 120 468.4C122.8 464.667 128 462.6 135.6 462.2V457.4C135.6 454.467 137.067 453 140 453H148.4C151.333 453 152.8 454.467 152.8 457.4V462.2C160.533 462.467 165.8 464.467 168.6 468.2C171.4 471.933 172.8 478.6 172.8 488.2V503.4C172.8 506.333 171.333 507.8 168.4 507.8H157.6C154.667 507.8 153.2 506.333 153.2 503.4V491.4C153.2 487.667 152.733 485.2 151.8 484C151 482.667 149.2 482 146.4 482H143.6C140.8 482 138.933 482.667 138 484C137.2 485.2 136.8 487.667 136.8 491.4V497.8C136.8 502.333 137.667 505.933 139.4 508.6C141.133 511.267 145.333 515.333 152 520.8C160.533 527.733 166.133 533.533 168.8 538.2C171.467 542.867 172.8 548.933 172.8 556.4V567.8C172.8 577.4 171.4 584.067 168.6 587.8C165.8 591.533 160.533 593.6 152.8 594V598.6C152.8 601.533 151.333 603 148.4 603Z" fill="#62FF00"/>
<path opacity="0.1" d="M432.4 833H424C421.067 833 419.6 831.533 419.6 828.6V824C411.733 823.333 406.533 821.267 404 817.8C401.333 813.933 400 807.267 400 797.8V780C400 777.067 401.467 775.6 404.4 775.6H415.2C418.133 775.6 419.6 777.067 419.6 780V794.6C419.6 798.333 420 800.867 420.8 802.2C421.733 803.4 423.6 804 426.4 804H429.2C432 804 433.8 803.4 434.6 802.2C435.4 800.867 435.8 798.333 435.8 794.6V788.4C435.8 783.867 434.933 780.267 433.2 777.6C431.733 775.067 427.6 771 420.8 765.4C412 758.2 406.333 752.4 403.8 748C401.267 743.467 400 737.4 400 729.8V718.2C400 708.6 401.333 702 404 698.4C406.8 694.667 412 692.6 419.6 692.2V687.4C419.6 684.467 421.067 683 424 683H432.4C435.333 683 436.8 684.467 436.8 687.4V692.2C444.533 692.467 449.8 694.467 452.6 698.2C455.4 701.933 456.8 708.6 456.8 718.2V733.4C456.8 736.333 455.333 737.8 452.4 737.8H441.6C438.667 737.8 437.2 736.333 437.2 733.4V721.4C437.2 717.667 436.733 715.2 435.8 714C435 712.667 433.2 712 430.4 712H427.6C424.8 712 422.933 712.667 422 714C421.2 715.2 420.8 717.667 420.8 721.4V727.8C420.8 732.333 421.667 735.933 423.4 738.6C425.133 741.267 429.333 745.333 436 750.8C444.533 757.733 450.133 763.533 452.8 768.2C455.467 772.867 456.8 778.933 456.8 786.4V797.8C456.8 807.4 455.4 814.067 452.6 817.8C449.8 821.533 444.533 823.6 436.8 824V828.6C436.8 831.533 435.333 833 432.4 833Z" fill="#62FF00"/>
<path opacity="0.1" d="M814.4 507H806C803.067 507 801.6 505.533 801.6 502.6V498C793.733 497.333 788.533 495.267 786 491.8C783.333 487.933 782 481.267 782 471.8V454C782 451.067 783.467 449.6 786.4 449.6H797.2C800.133 449.6 801.6 451.067 801.6 454V468.6C801.6 472.333 802 474.867 802.8 476.2C803.733 477.4 805.6 478 808.4 478H811.2C814 478 815.8 477.4 816.6 476.2C817.4 474.867 817.8 472.333 817.8 468.6V462.4C817.8 457.867 816.933 454.267 815.2 451.6C813.733 449.067 809.6 445 802.8 439.4C794 432.2 788.333 426.4 785.8 422C783.267 417.467 782 411.4 782 403.8V392.2C782 382.6 783.333 376 786 372.4C788.8 368.667 794 366.6 801.6 366.2V361.4C801.6 358.467 803.067 357 806 357H814.4C817.333 357 818.8 358.467 818.8 361.4V366.2C826.533 366.467 831.8 368.467 834.6 372.2C837.4 375.933 838.8 382.6 838.8 392.2V407.4C838.8 410.333 837.333 411.8 834.4 411.8H823.6C820.667 411.8 819.2 410.333 819.2 407.4V395.4C819.2 391.667 818.733 389.2 817.8 388C817 386.667 815.2 386 812.4 386H809.6C806.8 386 804.933 386.667 804 388C803.2 389.2 802.8 391.667 802.8 395.4V401.8C802.8 406.333 803.667 409.933 805.4 412.6C807.133 415.267 811.333 419.333 818 424.8C826.533 431.733 832.133 437.533 834.8 442.2C837.467 446.867 838.8 452.933 838.8 460.4V471.8C838.8 481.4 837.4 488.067 834.6 491.8C831.8 495.533 826.533 497.6 818.8 498V502.6C818.8 505.533 817.333 507 814.4 507Z" fill="#62FF00"/>
<path opacity="0.1" d="M1004.4 622H996C993.067 622 991.6 620.533 991.6 617.6V613C983.733 612.333 978.533 610.267 976 606.8C973.333 602.933 972 596.267 972 586.8V569C972 566.067 973.467 564.6 976.4 564.6H987.2C990.133 564.6 991.6 566.067 991.6 569V583.6C991.6 587.333 992 589.867 992.8 591.2C993.733 592.4 995.6 593 998.4 593H1001.2C1004 593 1005.8 592.4 1006.6 591.2C1007.4 589.867 1007.8 587.333 1007.8 583.6V577.4C1007.8 572.867 1006.93 569.267 1005.2 566.6C1003.73 564.067 999.6 560 992.8 554.4C984 547.2 978.333 541.4 975.8 537C973.267 532.467 972 526.4 972 518.8V507.2C972 497.6 973.333 491 976 487.4C978.8 483.667 984 481.6 991.6 481.2V476.4C991.6 473.467 993.067 472 996 472H1004.4C1007.33 472 1008.8 473.467 1008.8 476.4V481.2C1016.53 481.467 1021.8 483.467 1024.6 487.2C1027.4 490.933 1028.8 497.6 1028.8 507.2V522.4C1028.8 525.333 1027.33 526.8 1024.4 526.8H1013.6C1010.67 526.8 1009.2 525.333 1009.2 522.4V510.4C1009.2 506.667 1008.73 504.2 1007.8 503C1007 501.667 1005.2 501 1002.4 501H999.6C996.8 501 994.933 501.667 994 503C993.2 504.2 992.8 506.667 992.8 510.4V516.8C992.8 521.333 993.667 524.933 995.4 527.6C997.133 530.267 1001.33 534.333 1008 539.8C1016.53 546.733 1022.13 552.533 1024.8 557.2C1027.47 561.867 1028.8 567.933 1028.8 575.4V586.8C1028.8 596.4 1027.4 603.067 1024.6 606.8C1021.8 610.533 1016.53 612.6 1008.8 613V617.6C1008.8 620.533 1007.33 622 1004.4 622Z" fill="#62FF00"/>
<path opacity="0.1" d="M1196.4 737H1188C1185.07 737 1183.6 735.533 1183.6 732.6V728C1175.73 727.333 1170.53 725.267 1168 721.8C1165.33 717.933 1164 711.267 1164 701.8V684C1164 681.067 1165.47 679.6 1168.4 679.6H1179.2C1182.13 679.6 1183.6 681.067 1183.6 684V698.6C1183.6 702.333 1184 704.867 1184.8 706.2C1185.73 707.4 1187.6 708 1190.4 708H1193.2C1196 708 1197.8 707.4 1198.6 706.2C1199.4 704.867 1199.8 702.333 1199.8 698.6V692.4C1199.8 687.867 1198.93 684.267 1197.2 681.6C1195.73 679.067 1191.6 675 1184.8 669.4C1176 662.2 1170.33 656.4 1167.8 652C1165.27 647.467 1164 641.4 1164 633.8V622.2C1164 612.6 1165.33 606 1168 602.4C1170.8 598.667 1176 596.6 1183.6 596.2V591.4C1183.6 588.467 1185.07 587 1188 587H1196.4C1199.33 587 1200.8 588.467 1200.8 591.4V596.2C1208.53 596.467 1213.8 598.467 1216.6 602.2C1219.4 605.933 1220.8 612.6 1220.8 622.2V637.4C1220.8 640.333 1219.33 641.8 1216.4 641.8H1205.6C1202.67 641.8 1201.2 640.333 1201.2 637.4V625.4C1201.2 621.667 1200.73 619.2 1199.8 618C1199 616.667 1197.2 616 1194.4 616H1191.6C1188.8 616 1186.93 616.667 1186 618C1185.2 619.2 1184.8 621.667 1184.8 625.4V631.8C1184.8 636.333 1185.67 639.933 1187.4 642.6C1189.13 645.267 1193.33 649.333 1200 654.8C1208.53 661.733 1214.13 667.533 1216.8 672.2C1219.47 676.867 1220.8 682.933 1220.8 690.4V701.8C1220.8 711.4 1219.4 718.067 1216.6 721.8C1213.8 725.533 1208.53 727.6 1200.8 728V732.6C1200.8 735.533 1199.33 737 1196.4 737Z" fill="#62FF00"/>
<path opacity="0.1" d="M1196.4 917H1188C1185.07 917 1183.6 915.533 1183.6 912.6V908C1175.73 907.333 1170.53 905.267 1168 901.8C1165.33 897.933 1164 891.267 1164 881.8V864C1164 861.067 1165.47 859.6 1168.4 859.6H1179.2C1182.13 859.6 1183.6 861.067 1183.6 864V878.6C1183.6 882.333 1184 884.867 1184.8 886.2C1185.73 887.4 1187.6 888 1190.4 888H1193.2C1196 888 1197.8 887.4 1198.6 886.2C1199.4 884.867 1199.8 882.333 1199.8 878.6V872.4C1199.8 867.867 1198.93 864.267 1197.2 861.6C1195.73 859.067 1191.6 855 1184.8 849.4C1176 842.2 1170.33 836.4 1167.8 832C1165.27 827.467 1164 821.4 1164 813.8V802.2C1164 792.6 1165.33 786 1168 782.4C1170.8 778.667 1176 776.6 1183.6 776.2V771.4C1183.6 768.467 1185.07 767 1188 767H1196.4C1199.33 767 1200.8 768.467 1200.8 771.4V776.2C1208.53 776.467 1213.8 778.467 1216.6 782.2C1219.4 785.933 1220.8 792.6 1220.8 802.2V817.4C1220.8 820.333 1219.33 821.8 1216.4 821.8H1205.6C1202.67 821.8 1201.2 820.333 1201.2 817.4V805.4C1201.2 801.667 1200.73 799.2 1199.8 798C1199 796.667 1197.2 796 1194.4 796H1191.6C1188.8 796 1186.93 796.667 1186 798C1185.2 799.2 1184.8 801.667 1184.8 805.4V811.8C1184.8 816.333 1185.67 819.933 1187.4 822.6C1189.13 825.267 1193.33 829.333 1200 834.8C1208.53 841.733 1214.13 847.533 1216.8 852.2C1219.47 856.867 1220.8 862.933 1220.8 870.4V881.8C1220.8 891.4 1219.4 898.067 1216.6 901.8C1213.8 905.533 1208.53 907.6 1200.8 908V912.6C1200.8 915.533 1199.33 917 1196.4 917Z" fill="#62FF00"/>
<path opacity="0.1" d="M149.4 987H141C138.067 987 136.6 985.533 136.6 982.6V978C128.733 977.333 123.533 975.267 121 971.8C118.333 967.933 117 961.267 117 951.8V934C117 931.067 118.467 929.6 121.4 929.6H132.2C135.133 929.6 136.6 931.067 136.6 934V948.6C136.6 952.333 137 954.867 137.8 956.2C138.733 957.4 140.6 958 143.4 958H146.2C149 958 150.8 957.4 151.6 956.2C152.4 954.867 152.8 952.333 152.8 948.6V942.4C152.8 937.867 151.933 934.267 150.2 931.6C148.733 929.067 144.6 925 137.8 919.4C129 912.2 123.333 906.4 120.8 902C118.267 897.467 117 891.4 117 883.8V872.2C117 862.6 118.333 856 121 852.4C123.8 848.667 129 846.6 136.6 846.2V841.4C136.6 838.467 138.067 837 141 837H149.4C152.333 837 153.8 838.467 153.8 841.4V846.2C161.533 846.467 166.8 848.467 169.6 852.2C172.4 855.933 173.8 862.6 173.8 872.2V887.4C173.8 890.333 172.333 891.8 169.4 891.8H158.6C155.667 891.8 154.2 890.333 154.2 887.4V875.4C154.2 871.667 153.733 869.2 152.8 868C152 866.667 150.2 866 147.4 866H144.6C141.8 866 139.933 866.667 139 868C138.2 869.2 137.8 871.667 137.8 875.4V881.8C137.8 886.333 138.667 889.933 140.4 892.6C142.133 895.267 146.333 899.333 153 904.8C161.533 911.733 167.133 917.533 169.8 922.2C172.467 926.867 173.8 932.933 173.8 940.4V951.8C173.8 961.4 172.4 968.067 169.6 971.8C166.8 975.533 161.533 977.6 153.8 978V982.6C153.8 985.533 152.333 987 149.4 987Z" fill="#62FF00"/>
<path opacity="0.1" d="M531.4 661H523C520.067 661 518.6 659.533 518.6 656.6V652C510.733 651.333 505.533 649.267 503 645.8C500.333 641.933 499 635.267 499 625.8V608C499 605.067 500.467 603.6 503.4 603.6H514.2C517.133 603.6 518.6 605.067 518.6 608V622.6C518.6 626.333 519 628.867 519.8 630.2C520.733 631.4 522.6 632 525.4 632H528.2C531 632 532.8 631.4 533.6 630.2C534.4 628.867 534.8 626.333 534.8 622.6V616.4C534.8 611.867 533.933 608.267 532.2 605.6C530.733 603.067 526.6 599 519.8 593.4C511 586.2 505.333 580.4 502.8 576C500.267 571.467 499 565.4 499 557.8V546.2C499 536.6 500.333 530 503 526.4C505.8 522.667 511 520.6 518.6 520.2V515.4C518.6 512.467 520.067 511 523 511H531.4C534.333 511 535.8 512.467 535.8 515.4V520.2C543.533 520.467 548.8 522.467 551.6 526.2C554.4 529.933 555.8 536.6 555.8 546.2V561.4C555.8 564.333 554.333 565.8 551.4 565.8H540.6C537.667 565.8 536.2 564.333 536.2 561.4V549.4C536.2 545.667 535.733 543.2 534.8 542C534 540.667 532.2 540 529.4 540H526.6C523.8 540 521.933 540.667 521 542C520.2 543.2 519.8 545.667 519.8 549.4V555.8C519.8 560.333 520.667 563.933 522.4 566.6C524.133 569.267 528.333 573.333 535 578.8C543.533 585.733 549.133 591.533 551.8 596.2C554.467 600.867 555.8 606.933 555.8 614.4V625.8C555.8 635.4 554.4 642.067 551.6 645.8C548.8 649.533 543.533 651.6 535.8 652V656.6C535.8 659.533 534.333 661 531.4 661Z" fill="#62FF00"/>
<path opacity="0.1" d="M721.4 776H713C710.067 776 708.6 774.533 708.6 771.6V767C700.733 766.333 695.533 764.267 693 760.8C690.333 756.933 689 750.267 689 740.8V723C689 720.067 690.467 718.6 693.4 718.6H704.2C707.133 718.6 708.6 720.067 708.6 723V737.6C708.6 741.333 709 743.867 709.8 745.2C710.733 746.4 712.6 747 715.4 747H718.2C721 747 722.8 746.4 723.6 745.2C724.4 743.867 724.8 741.333 724.8 737.6V731.4C724.8 726.867 723.933 723.267 722.2 720.6C720.733 718.067 716.6 714 709.8 708.4C701 701.2 695.333 695.4 692.8 691C690.267 686.467 689 680.4 689 672.8V661.2C689 651.6 690.333 645 693 641.4C695.8 637.667 701 635.6 708.6 635.2V630.4C708.6 627.467 710.067 626 713 626H721.4C724.333 626 725.8 627.467 725.8 630.4V635.2C733.533 635.467 738.8 637.467 741.6 641.2C744.4 644.933 745.8 651.6 745.8 661.2V676.4C745.8 679.333 744.333 680.8 741.4 680.8H730.6C727.667 680.8 726.2 679.333 726.2 676.4V664.4C726.2 660.667 725.733 658.2 724.8 657C724 655.667 722.2 655 719.4 655H716.6C713.8 655 711.933 655.667 711 657C710.2 658.2 709.8 660.667 709.8 664.4V670.8C709.8 675.333 710.667 678.933 712.4 681.6C714.133 684.267 718.333 688.333 725 693.8C733.533 700.733 739.133 706.533 741.8 711.2C744.467 715.867 745.8 721.933 745.8 729.4V740.8C745.8 750.4 744.4 757.067 741.6 760.8C738.8 764.533 733.533 766.6 725.8 767V771.6C725.8 774.533 724.333 776 721.4 776Z" fill="#62FF00"/>
<path opacity="0.6" d="M913.4 891H905C902.067 891 900.6 889.533 900.6 886.6V882C892.733 881.333 887.533 879.267 885 875.8C882.333 871.933 881 865.267 881 855.8V838C881 835.067 882.467 833.6 885.4 833.6H896.2C899.133 833.6 900.6 835.067 900.6 838V852.6C900.6 856.333 901 858.867 901.8 860.2C902.733 861.4 904.6 862 907.4 862H910.2C913 862 914.8 861.4 915.6 860.2C916.4 858.867 916.8 856.333 916.8 852.6V846.4C916.8 841.867 915.933 838.267 914.2 835.6C912.733 833.067 908.6 829 901.8 823.4C893 816.2 887.333 810.4 884.8 806C882.267 801.467 881 795.4 881 787.8V776.2C881 766.6 882.333 760 885 756.4C887.8 752.667 893 750.6 900.6 750.2V745.4C900.6 742.467 902.067 741 905 741H913.4C916.333 741 917.8 742.467 917.8 745.4V750.2C925.533 750.467 930.8 752.467 933.6 756.2C936.4 759.933 937.8 766.6 937.8 776.2V791.4C937.8 794.333 936.333 795.8 933.4 795.8H922.6C919.667 795.8 918.2 794.333 918.2 791.4V779.4C918.2 775.667 917.733 773.2 916.8 772C916 770.667 914.2 770 911.4 770H908.6C905.8 770 903.933 770.667 903 772C902.2 773.2 901.8 775.667 901.8 779.4V785.8C901.8 790.333 902.667 793.933 904.4 796.6C906.133 799.267 910.333 803.333 917 808.8C925.533 815.733 931.133 821.533 933.8 826.2C936.467 830.867 937.8 836.933 937.8 844.4V855.8C937.8 865.4 936.4 872.067 933.6 875.8C930.8 879.533 925.533 881.6 917.8 882V886.6C917.8 889.533 916.333 891 913.4 891Z" fill="url(#paint4_linear_9_812)"/>
<path opacity="0.1" d="M913.4 1071H905C902.067 1071 900.6 1069.53 900.6 1066.6V1062C892.733 1061.33 887.533 1059.27 885 1055.8C882.333 1051.93 881 1045.27 881 1035.8V1018C881 1015.07 882.467 1013.6 885.4 1013.6H896.2C899.133 1013.6 900.6 1015.07 900.6 1018V1032.6C900.6 1036.33 901 1038.87 901.8 1040.2C902.733 1041.4 904.6 1042 907.4 1042H910.2C913 1042 914.8 1041.4 915.6 1040.2C916.4 1038.87 916.8 1036.33 916.8 1032.6V1026.4C916.8 1021.87 915.933 1018.27 914.2 1015.6C912.733 1013.07 908.6 1009 901.8 1003.4C893 996.2 887.333 990.4 884.8 986C882.267 981.467 881 975.4 881 967.8V956.2C881 946.6 882.333 940 885 936.4C887.8 932.667 893 930.6 900.6 930.2V925.4C900.6 922.467 902.067 921 905 921H913.4C916.333 921 917.8 922.467 917.8 925.4V930.2C925.533 930.467 930.8 932.467 933.6 936.2C936.4 939.933 937.8 946.6 937.8 956.2V971.4C937.8 974.333 936.333 975.8 933.4 975.8H922.6C919.667 975.8 918.2 974.333 918.2 971.4V959.4C918.2 955.667 917.733 953.2 916.8 952C916 950.667 914.2 950 911.4 950H908.6C905.8 950 903.933 950.667 903 952C902.2 953.2 901.8 955.667 901.8 959.4V965.8C901.8 970.333 902.667 973.933 904.4 976.6C906.133 979.267 910.333 983.333 917 988.8C925.533 995.733 931.133 1001.53 933.8 1006.2C936.467 1010.87 937.8 1016.93 937.8 1024.4V1035.8C937.8 1045.4 936.4 1052.07 933.6 1055.8C930.8 1059.53 925.533 1061.6 917.8 1062V1066.6C917.8 1069.53 916.333 1071 913.4 1071Z" fill="#62FF00"/>
<path opacity="0.1" d="M55.4 699H47C44.0667 699 42.6 697.533 42.6 694.6V690C34.7333 689.333 29.5333 687.267 27 683.8C24.3333 679.933 23 673.267 23 663.8V646C23 643.067 24.4667 641.6 27.4 641.6H38.2C41.1333 641.6 42.6 643.067 42.6 646V660.6C42.6 664.333 43 666.867 43.8 668.2C44.7333 669.4 46.6 670 49.4 670H52.2C55 670 56.8 669.4 57.6 668.2C58.4 666.867 58.8 664.333 58.8 660.6V654.4C58.8 649.867 57.9333 646.267 56.2 643.6C54.7333 641.067 50.6 637 43.8 631.4C35 624.2 29.3333 618.4 26.8 614C24.2667 609.467 23 603.4 23 595.8V584.2C23 574.6 24.3333 568 27 564.4C29.8 560.667 35 558.6 42.6 558.2V553.4C42.6 550.467 44.0667 549 47 549H55.4C58.3333 549 59.8 550.467 59.8 553.4V558.2C67.5333 558.467 72.8 560.467 75.6 564.2C78.4 567.933 79.8 574.6 79.8 584.2V599.4C79.8 602.333 78.3333 603.8 75.4 603.8H64.6C61.6667 603.8 60.2 602.333 60.2 599.4V587.4C60.2 583.667 59.7333 581.2 58.8 580C58 578.667 56.2 578 53.4 578H50.6C47.8 578 45.9333 578.667 45 580C44.2 581.2 43.8 583.667 43.8 587.4V593.8C43.8 598.333 44.6667 601.933 46.4 604.6C48.1333 607.267 52.3333 611.333 59 616.8C67.5333 623.733 73.1333 629.533 75.8 634.2C78.4667 638.867 79.8 644.933 79.8 652.4V663.8C79.8 673.4 78.4 680.067 75.6 683.8C72.8 687.533 67.5333 689.6 59.8 690V694.6C59.8 697.533 58.3333 699 55.4 699Z" fill="#62FF00"/>
<path opacity="0.1" d="M339.4 929H331C328.067 929 326.6 927.533 326.6 924.6V920C318.733 919.333 313.533 917.267 311 913.8C308.333 909.933 307 903.267 307 893.8V876C307 873.067 308.467 871.6 311.4 871.6H322.2C325.133 871.6 326.6 873.067 326.6 876V890.6C326.6 894.333 327 896.867 327.8 898.2C328.733 899.4 330.6 900 333.4 900H336.2C339 900 340.8 899.4 341.6 898.2C342.4 896.867 342.8 894.333 342.8 890.6V884.4C342.8 879.867 341.933 876.267 340.2 873.6C338.733 871.067 334.6 867 327.8 861.4C319 854.2 313.333 848.4 310.8 844C308.267 839.467 307 833.4 307 825.8V814.2C307 804.6 308.333 798 311 794.4C313.8 790.667 319 788.6 326.6 788.2V783.4C326.6 780.467 328.067 779 331 779H339.4C342.333 779 343.8 780.467 343.8 783.4V788.2C351.533 788.467 356.8 790.467 359.6 794.2C362.4 797.933 363.8 804.6 363.8 814.2V829.4C363.8 832.333 362.333 833.8 359.4 833.8H348.6C345.667 833.8 344.2 832.333 344.2 829.4V817.4C344.2 813.667 343.733 811.2 342.8 810C342 808.667 340.2 808 337.4 808H334.6C331.8 808 329.933 808.667 329 810C328.2 811.2 327.8 813.667 327.8 817.4V823.8C327.8 828.333 328.667 831.933 330.4 834.6C332.133 837.267 336.333 841.333 343 846.8C351.533 853.733 357.133 859.533 359.8 864.2C362.467 868.867 363.8 874.933 363.8 882.4V893.8C363.8 903.4 362.4 910.067 359.6 913.8C356.8 917.533 351.533 919.6 343.8 920V924.6C343.8 927.533 342.333 929 339.4 929Z" fill="#62FF00"/>
<path opacity="0.6" d="M721.4 603H713C710.067 603 708.6 601.533 708.6 598.6V594C700.733 593.333 695.533 591.267 693 587.8C690.333 583.933 689 577.267 689 567.8V550C689 547.067 690.467 545.6 693.4 545.6H704.2C707.133 545.6 708.6 547.067 708.6 550V564.6C708.6 568.333 709 570.867 709.8 572.2C710.733 573.4 712.6 574 715.4 574H718.2C721 574 722.8 573.4 723.6 572.2C724.4 570.867 724.8 568.333 724.8 564.6V558.4C724.8 553.867 723.933 550.267 722.2 547.6C720.733 545.067 716.6 541 709.8 535.4C701 528.2 695.333 522.4 692.8 518C690.267 513.467 689 507.4 689 499.8V488.2C689 478.6 690.333 472 693 468.4C695.8 464.667 701 462.6 708.6 462.2V457.4C708.6 454.467 710.067 453 713 453H721.4C724.333 453 725.8 454.467 725.8 457.4V462.2C733.533 462.467 738.8 464.467 741.6 468.2C744.4 471.933 745.8 478.6 745.8 488.2V503.4C745.8 506.333 744.333 507.8 741.4 507.8H730.6C727.667 507.8 726.2 506.333 726.2 503.4V491.4C726.2 487.667 725.733 485.2 724.8 484C724 482.667 722.2 482 719.4 482H716.6C713.8 482 711.933 482.667 711 484C710.2 485.2 709.8 487.667 709.8 491.4V497.8C709.8 502.333 710.667 505.933 712.4 508.6C714.133 511.267 718.333 515.333 725 520.8C733.533 527.733 739.133 533.533 741.8 538.2C744.467 542.867 745.8 548.933 745.8 556.4V567.8C745.8 577.4 744.4 584.067 741.6 587.8C738.8 591.533 733.533 593.6 725.8 594V598.6C725.8 601.533 724.333 603 721.4 603Z" fill="url(#paint5_linear_9_812)"/>
<path opacity="0.1" d="M911.4 718H903C900.067 718 898.6 716.533 898.6 713.6V709C890.733 708.333 885.533 706.267 883 702.8C880.333 698.933 879 692.267 879 682.8V665C879 662.067 880.467 660.6 883.4 660.6H894.2C897.133 660.6 898.6 662.067 898.6 665V679.6C898.6 683.333 899 685.867 899.8 687.2C900.733 688.4 902.6 689 905.4 689H908.2C911 689 912.8 688.4 913.6 687.2C914.4 685.867 914.8 683.333 914.8 679.6V673.4C914.8 668.867 913.933 665.267 912.2 662.6C910.733 660.067 906.6 656 899.8 650.4C891 643.2 885.333 637.4 882.8 633C880.267 628.467 879 622.4 879 614.8V603.2C879 593.6 880.333 587 883 583.4C885.8 579.667 891 577.6 898.6 577.2V572.4C898.6 569.467 900.067 568 903 568H911.4C914.333 568 915.8 569.467 915.8 572.4V577.2C923.533 577.467 928.8 579.467 931.6 583.2C934.4 586.933 935.8 593.6 935.8 603.2V618.4C935.8 621.333 934.333 622.8 931.4 622.8H920.6C917.667 622.8 916.2 621.333 916.2 618.4V606.4C916.2 602.667 915.733 600.2 914.8 599C914 597.667 912.2 597 909.4 597H906.6C903.8 597 901.933 597.667 901 599C900.2 600.2 899.8 602.667 899.8 606.4V612.8C899.8 617.333 900.667 620.933 902.4 623.6C904.133 626.267 908.333 630.333 915 635.8C923.533 642.733 929.133 648.533 931.8 653.2C934.467 657.867 935.8 663.933 935.8 671.4V682.8C935.8 692.4 934.4 699.067 931.6 702.8C928.8 706.533 923.533 708.6 915.8 709V713.6C915.8 716.533 914.333 718 911.4 718Z" fill="#62FF00"/>
<path opacity="0.1" d="M1103.4 833H1095C1092.07 833 1090.6 831.533 1090.6 828.6V824C1082.73 823.333 1077.53 821.267 1075 817.8C1072.33 813.933 1071 807.267 1071 797.8V780C1071 777.067 1072.47 775.6 1075.4 775.6H1086.2C1089.13 775.6 1090.6 777.067 1090.6 780V794.6C1090.6 798.333 1091 800.867 1091.8 802.2C1092.73 803.4 1094.6 804 1097.4 804H1100.2C1103 804 1104.8 803.4 1105.6 802.2C1106.4 800.867 1106.8 798.333 1106.8 794.6V788.4C1106.8 783.867 1105.93 780.267 1104.2 777.6C1102.73 775.067 1098.6 771 1091.8 765.4C1083 758.2 1077.33 752.4 1074.8 748C1072.27 743.467 1071 737.4 1071 729.8V718.2C1071 708.6 1072.33 702 1075 698.4C1077.8 694.667 1083 692.6 1090.6 692.2V687.4C1090.6 684.467 1092.07 683 1095 683H1103.4C1106.33 683 1107.8 684.467 1107.8 687.4V692.2C1115.53 692.467 1120.8 694.467 1123.6 698.2C1126.4 701.933 1127.8 708.6 1127.8 718.2V733.4C1127.8 736.333 1126.33 737.8 1123.4 737.8H1112.6C1109.67 737.8 1108.2 736.333 1108.2 733.4V721.4C1108.2 717.667 1107.73 715.2 1106.8 714C1106 712.667 1104.2 712 1101.4 712H1098.6C1095.8 712 1093.93 712.667 1093 714C1092.2 715.2 1091.8 717.667 1091.8 721.4V727.8C1091.8 732.333 1092.67 735.933 1094.4 738.6C1096.13 741.267 1100.33 745.333 1107 750.8C1115.53 757.733 1121.13 763.533 1123.8 768.2C1126.47 772.867 1127.8 778.933 1127.8 786.4V797.8C1127.8 807.4 1126.4 814.067 1123.6 817.8C1120.8 821.533 1115.53 823.6 1107.8 824V828.6C1107.8 831.533 1106.33 833 1103.4 833Z" fill="#62FF00"/>
<path opacity="0.1" d="M1103.4 1013H1095C1092.07 1013 1090.6 1011.53 1090.6 1008.6V1004C1082.73 1003.33 1077.53 1001.27 1075 997.8C1072.33 993.933 1071 987.267 1071 977.8V960C1071 957.067 1072.47 955.6 1075.4 955.6H1086.2C1089.13 955.6 1090.6 957.067 1090.6 960V974.6C1090.6 978.333 1091 980.867 1091.8 982.2C1092.73 983.4 1094.6 984 1097.4 984H1100.2C1103 984 1104.8 983.4 1105.6 982.2C1106.4 980.867 1106.8 978.333 1106.8 974.6V968.4C1106.8 963.867 1105.93 960.267 1104.2 957.6C1102.73 955.067 1098.6 951 1091.8 945.4C1083 938.2 1077.33 932.4 1074.8 928C1072.27 923.467 1071 917.4 1071 909.8V898.2C1071 888.6 1072.33 882 1075 878.4C1077.8 874.667 1083 872.6 1090.6 872.2V867.4C1090.6 864.467 1092.07 863 1095 863H1103.4C1106.33 863 1107.8 864.467 1107.8 867.4V872.2C1115.53 872.467 1120.8 874.467 1123.6 878.2C1126.4 881.933 1127.8 888.6 1127.8 898.2V913.4C1127.8 916.333 1126.33 917.8 1123.4 917.8H1112.6C1109.67 917.8 1108.2 916.333 1108.2 913.4V901.4C1108.2 897.667 1107.73 895.2 1106.8 894C1106 892.667 1104.2 892 1101.4 892H1098.6C1095.8 892 1093.93 892.667 1093 894C1092.2 895.2 1091.8 897.667 1091.8 901.4V907.8C1091.8 912.333 1092.67 915.933 1094.4 918.6C1096.13 921.267 1100.33 925.333 1107 930.8C1115.53 937.733 1121.13 943.533 1123.8 948.2C1126.47 952.867 1127.8 958.933 1127.8 966.4V977.8C1127.8 987.4 1126.4 994.067 1123.6 997.8C1120.8 1001.53 1115.53 1003.6 1107.8 1004V1008.6C1107.8 1011.53 1106.33 1013 1103.4 1013Z" fill="#62FF00"/>
<g opacity="0.7" filter="url(#filter1_d_9_812)">
<mask id="path-29-outside-1_9_812" maskUnits="userSpaceOnUse" x="222" y="532" width="236" height="608" fill="black">
<rect fill="white" x="222" y="532" width="236" height="608"/>
<path d="M355.6 1136H322C310.267 1136 304.4 1130.13 304.4 1118.4V1100C272.933 1097.33 252.133 1089.07 242 1075.2C231.333 1059.73 226 1033.07 226 995.2V924C226 912.267 231.867 906.4 243.6 906.4H286.8C298.533 906.4 304.4 912.267 304.4 924V982.4C304.4 997.333 306 1007.47 309.2 1012.8C312.933 1017.6 320.4 1020 331.6 1020H342.8C354 1020 361.2 1017.6 364.4 1012.8C367.6 1007.47 369.2 997.333 369.2 982.4V957.6C369.2 939.467 365.733 925.067 358.8 914.4C352.933 904.267 336.4 888 309.2 865.6C274 836.8 251.333 813.6 241.2 796C231.067 777.867 226 753.6 226 723.2V676.8C226 638.4 231.333 612 242 597.6C253.2 582.667 274 574.4 304.4 572.8V553.6C304.4 541.867 310.267 536 322 536H355.6C367.333 536 373.2 541.867 373.2 553.6V572.8C404.133 573.867 425.2 581.867 436.4 596.8C447.6 611.733 453.2 638.4 453.2 676.8V737.6C453.2 749.333 447.333 755.2 435.6 755.2H392.4C380.667 755.2 374.8 749.333 374.8 737.6V689.6C374.8 674.667 372.933 664.8 369.2 660C366 654.667 358.8 652 347.6 652H336.4C325.2 652 317.733 654.667 314 660C310.8 664.8 309.2 674.667 309.2 689.6V715.2C309.2 733.333 312.667 747.733 319.6 758.4C326.533 769.067 343.333 785.333 370 807.2C404.133 834.933 426.533 858.133 437.2 876.8C447.867 895.467 453.2 919.733 453.2 949.6V995.2C453.2 1033.6 447.6 1060.27 436.4 1075.2C425.2 1090.13 404.133 1098.4 373.2 1100V1118.4C373.2 1130.13 367.333 1136 355.6 1136Z"/>
</mask>
<path d="M355.6 1136H322C310.267 1136 304.4 1130.13 304.4 1118.4V1100C272.933 1097.33 252.133 1089.07 242 1075.2C231.333 1059.73 226 1033.07 226 995.2V924C226 912.267 231.867 906.4 243.6 906.4H286.8C298.533 906.4 304.4 912.267 304.4 924V982.4C304.4 997.333 306 1007.47 309.2 1012.8C312.933 1017.6 320.4 1020 331.6 1020H342.8C354 1020 361.2 1017.6 364.4 1012.8C367.6 1007.47 369.2 997.333 369.2 982.4V957.6C369.2 939.467 365.733 925.067 358.8 914.4C352.933 904.267 336.4 888 309.2 865.6C274 836.8 251.333 813.6 241.2 796C231.067 777.867 226 753.6 226 723.2V676.8C226 638.4 231.333 612 242 597.6C253.2 582.667 274 574.4 304.4 572.8V553.6C304.4 541.867 310.267 536 322 536H355.6C367.333 536 373.2 541.867 373.2 553.6V572.8C404.133 573.867 425.2 581.867 436.4 596.8C447.6 611.733 453.2 638.4 453.2 676.8V737.6C453.2 749.333 447.333 755.2 435.6 755.2H392.4C380.667 755.2 374.8 749.333 374.8 737.6V689.6C374.8 674.667 372.933 664.8 369.2 660C366 654.667 358.8 652 347.6 652H336.4C325.2 652 317.733 654.667 314 660C310.8 664.8 309.2 674.667 309.2 689.6V715.2C309.2 733.333 312.667 747.733 319.6 758.4C326.533 769.067 343.333 785.333 370 807.2C404.133 834.933 426.533 858.133 437.2 876.8C447.867 895.467 453.2 919.733 453.2 949.6V995.2C453.2 1033.6 447.6 1060.27 436.4 1075.2C425.2 1090.13 404.133 1098.4 373.2 1100V1118.4C373.2 1130.13 367.333 1136 355.6 1136Z" fill="url(#paint6_linear_9_812)"/>
<path d="M304.4 1100H308.4V1096.32L304.738 1096.01L304.4 1100ZM242 1075.2L238.707 1077.47L238.738 1077.52L238.77 1077.56L242 1075.2ZM309.2 1012.8L305.77 1014.86L305.894 1015.07L306.043 1015.26L309.2 1012.8ZM364.4 1012.8L367.728 1015.02L367.781 1014.94L367.83 1014.86L364.4 1012.8ZM358.8 914.4L355.338 916.404L355.39 916.493L355.446 916.58L358.8 914.4ZM309.2 865.6L311.743 862.512L311.733 862.504L309.2 865.6ZM241.2 796L237.708 797.951L237.721 797.974L237.734 797.996L241.2 796ZM242 597.6L238.8 595.2L238.793 595.21L238.786 595.219L242 597.6ZM304.4 572.8L304.61 576.794L308.4 576.595V572.8H304.4ZM373.2 572.8H369.2V576.664L373.062 576.798L373.2 572.8ZM436.4 596.8L439.6 594.4L436.4 596.8ZM369.2 660L365.77 662.058L365.894 662.265L366.043 662.456L369.2 660ZM314 660L310.723 657.706L310.697 657.743L310.672 657.781L314 660ZM319.6 758.4L322.954 756.22L322.954 756.22L319.6 758.4ZM370 807.2L367.464 810.293L367.471 810.299L367.478 810.304L370 807.2ZM437.2 876.8L433.727 878.785L433.727 878.785L437.2 876.8ZM436.4 1075.2L433.2 1072.8L436.4 1075.2ZM373.2 1100L372.993 1096.01L369.2 1096.2V1100H373.2ZM355.6 1136V1132H322V1136V1140H355.6V1136ZM322 1136V1132C316.75 1132 313.547 1130.69 311.628 1128.77C309.71 1126.85 308.4 1123.65 308.4 1118.4H304.4H300.4C300.4 1124.88 302.024 1130.48 305.972 1134.43C309.92 1138.38 315.517 1140 322 1140V1136ZM304.4 1118.4H308.4V1100H304.4H300.4V1118.4H304.4ZM304.4 1100L304.738 1096.01C273.531 1093.37 254.286 1085.23 245.23 1072.84L242 1075.2L238.77 1077.56C249.981 1092.9 272.336 1101.3 304.062 1103.99L304.4 1100ZM242 1075.2L245.293 1072.93C235.362 1058.53 230 1032.94 230 995.2H226H222C222 1033.2 227.305 1060.94 238.707 1077.47L242 1075.2ZM226 995.2H230V924H226H222V995.2H226ZM226 924H230C230 918.75 231.31 915.547 233.228 913.628C235.147 911.71 238.35 910.4 243.6 910.4V906.4V902.4C237.117 902.4 231.52 904.024 227.572 907.972C223.624 911.92 222 917.517 222 924H226ZM243.6 906.4V910.4H286.8V906.4V902.4H243.6V906.4ZM286.8 906.4V910.4C292.05 910.4 295.253 911.71 297.172 913.628C299.09 915.547 300.4 918.75 300.4 924H304.4H308.4C308.4 917.517 306.776 911.92 302.828 907.972C298.88 904.024 293.283 902.4 286.8 902.4V906.4ZM304.4 924H300.4V982.4H304.4H308.4V924H304.4ZM304.4 982.4H300.4C300.4 989.99 300.805 996.481 301.649 1001.82C302.484 1007.11 303.789 1011.56 305.77 1014.86L309.2 1012.8L312.63 1010.74C311.411 1008.71 310.316 1005.42 309.551 1000.58C308.795 995.786 308.4 989.743 308.4 982.4H304.4ZM309.2 1012.8L306.043 1015.26C310.979 1021.6 320.142 1024 331.6 1024V1020V1016C320.658 1016 314.887 1013.6 312.357 1010.34L309.2 1012.8ZM331.6 1020V1024H342.8V1020V1016H331.6V1020ZM342.8 1020V1024C354.154 1024 363.31 1021.65 367.728 1015.02L364.4 1012.8L361.072 1010.58C359.09 1013.55 353.846 1016 342.8 1016V1020ZM364.4 1012.8L367.83 1014.86C369.811 1011.56 371.116 1007.11 371.951 1001.82C372.795 996.481 373.2 989.99 373.2 982.4H369.2H365.2C365.2 989.743 364.805 995.786 364.049 1000.58C363.284 1005.42 362.189 1008.71 360.97 1010.74L364.4 1012.8ZM369.2 982.4H373.2V957.6H369.2H365.2V982.4H369.2ZM369.2 957.6H373.2C373.2 939.007 369.652 923.756 362.154 912.22L358.8 914.4L355.446 916.58C361.814 926.377 365.2 939.926 365.2 957.6H369.2ZM358.8 914.4L362.262 912.396C359.048 906.846 353.129 899.938 344.805 891.749C336.424 883.502 325.392 873.753 311.743 862.512L309.2 865.6L306.657 868.688C320.208 879.847 331.043 889.431 339.195 897.451C347.404 905.528 352.685 911.821 355.338 916.404L358.8 914.4ZM309.2 865.6L311.733 862.504C276.558 833.725 254.405 810.918 244.666 794.004L241.2 796L237.734 797.996C248.262 816.282 271.442 839.875 306.667 868.696L309.2 865.6ZM241.2 796L244.692 794.049C235.011 776.725 230 753.212 230 723.2H226H222C222 753.988 227.122 779.008 237.708 797.951L241.2 796ZM226 723.2H230V676.8H226H222V723.2H226ZM226 676.8H230C230 638.467 235.384 613.252 245.214 599.981L242 597.6L238.786 595.219C227.283 610.748 222 638.333 222 676.8H226ZM242 597.6L245.2 600C255.342 586.477 274.661 578.371 304.61 576.794L304.4 572.8L304.19 568.806C273.339 570.429 251.058 578.856 238.8 595.2L242 597.6ZM304.4 572.8H308.4V553.6H304.4H300.4V572.8H304.4ZM304.4 553.6H308.4C308.4 548.35 309.71 545.147 311.628 543.228C313.547 541.31 316.75 540 322 540V536V532C315.517 532 309.92 533.624 305.972 537.572C302.024 541.52 300.4 547.117 300.4 553.6H304.4ZM322 536V540H355.6V536V532H322V536ZM355.6 536V540C360.85 540 364.053 541.31 365.972 543.228C367.89 545.147 369.2 548.35 369.2 553.6H373.2H377.2C377.2 547.117 375.576 541.52 371.628 537.572C367.68 533.624 362.083 532 355.6 532V536ZM373.2 553.6H369.2V572.8H373.2H377.2V553.6H373.2ZM373.2 572.8L373.062 576.798C403.567 577.849 423.092 585.723 433.2 599.2L436.4 596.8L439.6 594.4C427.308 578.01 404.7 569.884 373.338 568.802L373.2 572.8ZM436.4 596.8L433.2 599.2C443.561 613.015 449.2 638.511 449.2 676.8H453.2H457.2C457.2 638.289 451.639 610.452 439.6 594.4L436.4 596.8ZM453.2 676.8H449.2V737.6H453.2H457.2V676.8H453.2ZM453.2 737.6H449.2C449.2 742.85 447.89 746.053 445.972 747.972C444.053 749.89 440.85 751.2 435.6 751.2V755.2V759.2C442.083 759.2 447.68 757.576 451.628 753.628C455.576 749.68 457.2 744.083 457.2 737.6H453.2ZM435.6 755.2V751.2H392.4V755.2V759.2H435.6V755.2ZM392.4 755.2V751.2C387.15 751.2 383.947 749.89 382.028 747.972C380.11 746.053 378.8 742.85 378.8 737.6H374.8H370.8C370.8 744.083 372.424 749.68 376.372 753.628C380.32 757.576 385.917 759.2 392.4 759.2V755.2ZM374.8 737.6H378.8V689.6H374.8H370.8V737.6H374.8ZM374.8 689.6H378.8C378.8 681.992 378.326 675.522 377.33 670.256C376.347 665.058 374.789 660.671 372.357 657.544L369.2 660L366.043 662.456C367.344 664.129 368.587 667.076 369.47 671.744C370.34 676.345 370.8 682.275 370.8 689.6H374.8ZM369.2 660L372.63 657.942C368.275 650.683 359.087 648 347.6 648V652V656C358.513 656 363.725 658.65 365.77 662.058L369.2 660ZM347.6 652V648H336.4V652V656H347.6V652ZM336.4 652V648C324.824 648 315.614 650.719 310.723 657.706L314 660L317.277 662.294C319.853 658.614 325.576 656 336.4 656V652ZM314 660L310.672 657.781C308.602 660.885 307.286 665.217 306.452 670.36C305.605 675.581 305.2 682.013 305.2 689.6H309.2H313.2C313.2 682.254 313.595 676.286 314.348 671.64C315.114 666.917 316.198 663.915 317.328 662.219L314 660ZM309.2 689.6H305.2V715.2H309.2H313.2V689.6H309.2ZM309.2 715.2H305.2C305.2 733.793 308.748 749.044 316.246 760.58L319.6 758.4L322.954 756.22C316.586 746.423 313.2 732.874 313.2 715.2H309.2ZM319.6 758.4L316.246 760.58C323.565 771.839 340.845 788.466 367.464 810.293L370 807.2L372.536 804.107C345.821 782.201 329.502 766.294 322.954 756.22L319.6 758.4ZM370 807.2L367.478 810.304C401.543 837.983 423.448 860.796 433.727 878.785L437.2 876.8L440.673 874.815C429.619 855.47 406.723 831.884 372.522 804.096L370 807.2ZM437.2 876.8L433.727 878.785C443.94 896.657 449.2 920.172 449.2 949.6H453.2H457.2C457.2 919.295 451.794 894.277 440.673 874.815L437.2 876.8ZM453.2 949.6H449.2V995.2H453.2H457.2V949.6H453.2ZM453.2 995.2H449.2C449.2 1033.49 443.561 1058.99 433.2 1072.8L436.4 1075.2L439.6 1077.6C451.639 1061.55 457.2 1033.71 457.2 995.2H453.2ZM436.4 1075.2L433.2 1072.8C423.069 1086.31 403.504 1094.43 372.993 1096.01L373.2 1100L373.407 1103.99C404.763 1102.37 427.331 1093.96 439.6 1077.6L436.4 1075.2ZM373.2 1100H369.2V1118.4H373.2H377.2V1100H373.2ZM373.2 1118.4H369.2C369.2 1123.65 367.89 1126.85 365.972 1128.77C364.053 1130.69 360.85 1132 355.6 1132V1136V1140C362.083 1140 367.68 1138.38 371.628 1134.43C375.576 1130.48 377.2 1124.88 377.2 1118.4H373.2Z" fill="#F2FF00" mask="url(#path-29-outside-1_9_812)"/>
</g>
</g>
</g>
<defs>
<filter id="filter0_i_9_812" x="-70" y="-37" width="1292.8" height="1258" filterUnits="userSpaceOnUse" color-interpolation-filters="sRGB">
<feFlood flood-opacity="0" result="BackgroundImageFix"/>
<feBlend mode="normal" in="SourceGraphic" in2="BackgroundImageFix" result="shape"/>
<feColorMatrix in="SourceAlpha" type="matrix" values="0 0 0 0 0 0 0 0 0 0 0 0 0 0 0 0 0 0 127 0" result="hardAlpha"/>
<feOffset dx="2" dy="4"/>
<feGaussianBlur stdDeviation="2"/>
<feComposite in2="hardAlpha" operator="arithmetic" k2="-1" k3="1"/>
<feColorMatrix type="matrix" values="0 0 0 0 0 0 0 0 0 0 0 0 0 0 0 0 0 0 0.25 0"/>
<feBlend mode="normal" in2="shape" result="effect1_innerShadow_9_812"/>
</filter>
<filter id="filter1_d_9_812" x="220" y="532" width="243.2" height="617" filterUnits="userSpaceOnUse" color-interpolation-filters="sRGB">
<feFlood flood-opacity="0" result="BackgroundImageFix"/>
<feColorMatrix in="SourceAlpha" type="matrix" values="0 0 0 0 0 0 0 0 0 0 0 0 0 0 0 0 0 0 127 0" result="hardAlpha"/>
<feOffset dx="2" dy="5"/>
<feGaussianBlur stdDeviation="2"/>
<feComposite in2="hardAlpha" operator="out"/>
<feColorMatrix type="matrix" values="0 0 0 0 0 0 0 0 0 0 0 0 0 0 0 0 0 0 0.5 0"/>
<feBlend mode="normal" in2="BackgroundImageFix" result="effect1_dropShadow_9_812"/>
<feBlend mode="normal" in="SourceGraphic" in2="effect1_dropShadow_9_812" result="shape"/>
</filter>
<linearGradient id="paint0_linear_9_812" x1="675" y1="0" x2="675" y2="950" gradientUnits="userSpaceOnUse">
<stop stop-color="#00B126"/>
<stop offset="0.572145" stop-color="#007E1B"/>
<stop offset="1" stop-color="#004B10"/>
</linearGradient>
<linearGradient id="paint1_linear_9_812" x1="52.5" y1="720" x2="52.5" y2="912" gradientUnits="userSpaceOnUse">
<stop stop-color="#ACDB07"/>
<stop offset="1" stop-color="#5C7504"/>
</linearGradient>
<linearGradient id="paint2_linear_9_812" x1="144.5" y1="650" x2="144.5" y2="842" gradientUnits="userSpaceOnUse">
<stop stop-color="#ACDB07"/>
<stop offset="1" stop-color="#5C7504"/>
</linearGradient>
<linearGradient id="paint3_linear_9_812" x1="810.5" y1="509" x2="810.5" y2="701" gradientUnits="userSpaceOnUse">
<stop stop-color="#ACDB07"/>
<stop offset="1" stop-color="#5C7504"/>
</linearGradient>
<linearGradient id="paint4_linear_9_812" x1="909.5" y1="720" x2="909.5" y2="912" gradientUnits="userSpaceOnUse">
<stop stop-color="#ACDB07"/>
<stop offset="1" stop-color="#5C7504"/>
</linearGradient>
<linearGradient id="paint5_linear_9_812" x1="717.5" y1="432" x2="717.5" y2="624" gradientUnits="userSpaceOnUse">
<stop stop-color="#ACDB07"/>
<stop offset="1" stop-color="#5C7504"/>
</linearGradient>
<linearGradient id="paint6_linear_9_812" x1="339.5" y1="451" x2="339.5" y2="1219" gradientUnits="userSpaceOnUse">
<stop stop-color="#0BBA23"/>
<stop offset="1" stop-color="#055410"/>
</linearGradient>
<clipPath id="clip0_9_812">
<rect width="1350" height="950" rx="10" fill="white"/>
</clipPath>
</defs>
</svg>
