<svg width="948" height="1041" viewBox="0 0 948 1041" fill="none" xmlns="http://www.w3.org/2000/svg">
<rect x="298.794" y="294.29" width="367.085" height="550.627" rx="17" transform="rotate(-45 298.794 294.29)" fill="url(#paint0_linear_61_33)"/>
<path d="M698.529 332.314H594.421V436.422" stroke="black" stroke-width="130" stroke-linecap="round"/>
<path d="M623.254 359.182C623.254 359.182 653.839 390.085 676.019 404.738C695.904 417.875 729.604 433.087 729.604 433.087L693.553 469.138C693.553 469.138 678.216 435.129 665.204 415.553C650.412 393.298 623.254 359.182 623.254 359.182Z" fill="black"/>
<path d="M390.177 337.675L386.376 341.477C385.289 342.563 384.294 342.517 383.389 341.341L344.56 290.972C343.791 289.931 343.881 288.936 344.832 287.985L352.502 280.315C353.453 279.364 354.448 279.274 355.489 280.043L405.79 318.94C406.966 319.845 407.012 320.84 405.926 321.926L401.31 326.542C400.359 327.493 399.364 327.583 398.323 326.814L392.281 322.13L385.697 328.715L390.313 334.688C391.127 335.774 391.082 336.77 390.177 337.675ZM378.569 319.415L379.859 320.976L384.611 316.224L383.049 314.935C369.382 303.711 359.766 295.588 354.199 290.565C360.58 297.941 368.704 307.558 378.569 319.415Z" fill="black"/>
<path d="M856.33 380.69L860.132 376.888C861.218 375.802 862.214 375.847 863.119 377.024L901.947 427.393C902.717 428.433 902.626 429.429 901.676 430.379L894.005 438.05C893.055 439 892.059 439.091 891.018 438.322L840.717 399.425C839.541 398.52 839.496 397.524 840.582 396.438L845.198 391.822C846.148 390.872 847.144 390.781 848.185 391.551L854.226 396.235L860.811 389.65L856.195 383.676C855.38 382.59 855.425 381.595 856.33 380.69ZM867.938 398.95L866.648 397.389L861.897 402.14L863.458 403.43C877.125 414.653 886.742 422.777 892.308 427.8C885.927 420.423 877.804 410.807 867.938 398.95Z" fill="url(#paint1_linear_61_33)"/>
<rect y="417.237" width="277.026" height="415.539" rx="13" transform="rotate(-45 0 417.237)" fill="url(#paint2_linear_61_33)"/>
<path d="M161.198 382.549L302.584 408.483L187.132 523.934L161.198 382.549Z" fill="#FF0000"/>
<path d="M328.519 549.869L187.133 523.934L302.585 408.483L328.519 549.869Z" fill="#FF0000"/>
<path d="M426.493 487.127L429.027 484.593C429.751 483.869 430.415 483.899 431.018 484.684L456.904 518.263C457.417 518.957 457.357 519.62 456.723 520.254L451.609 525.368C450.976 526.001 450.312 526.062 449.618 525.549L416.084 499.618C415.3 499.014 415.27 498.351 415.994 497.626L419.071 494.549C419.705 493.916 420.368 493.855 421.062 494.368L425.09 497.491L429.48 493.101L426.402 489.119C425.859 488.394 425.889 487.731 426.493 487.127ZM434.231 499.301L433.372 498.26L430.204 501.428L431.245 502.288C440.356 509.77 446.767 515.185 450.478 518.534C446.224 513.617 440.808 507.205 434.231 499.301Z" fill="url(#paint3_linear_61_33)"/>
<path d="M63.2245 445.29L60.6902 447.824C59.9661 448.548 59.3024 448.518 58.699 447.734L32.8132 414.154C32.3003 413.461 32.3607 412.797 32.9942 412.163L38.108 407.049C38.7416 406.416 39.4053 406.356 40.0992 406.868L73.6331 432.799C74.4175 433.403 74.4477 434.067 73.7236 434.791L70.6463 437.868C70.0127 438.502 69.349 438.562 68.655 438.049L64.6274 434.926L60.2376 439.316L63.315 443.299C63.858 444.023 63.8279 444.686 63.2245 445.29ZM55.4859 433.116L56.3457 434.157L59.5136 430.989L58.4727 430.129C49.3614 422.647 42.9503 417.232 39.2394 413.883C43.4934 418.801 48.9089 425.212 55.4859 433.116Z" fill="#FF0000"/>
<rect x="104.665" y="117.324" width="165.921" height="248.881" rx="9" transform="rotate(-45 104.665 117.324)" fill="url(#paint4_linear_61_33)"/>
<path d="M219.951 157.652H261.5V116.103" stroke="#FF0000" stroke-width="60" stroke-linecap="round"/>
<path d="M359.115 158.399L360.699 156.815C361.151 156.362 361.566 156.381 361.943 156.871L378.122 177.858C378.442 178.292 378.405 178.707 378.009 179.103L374.812 182.299C374.416 182.695 374.002 182.733 373.568 182.412L352.609 166.205C352.119 165.828 352.1 165.413 352.553 164.961L354.476 163.037C354.872 162.641 355.287 162.604 355.721 162.924L358.238 164.876L360.981 162.132L359.058 159.643C358.719 159.191 358.738 158.776 359.115 158.399ZM363.951 166.007L363.414 165.357L361.434 167.337L362.085 167.874C367.779 172.55 371.786 175.935 374.105 178.028C371.447 174.954 368.062 170.948 363.951 166.007Z" fill="url(#paint5_linear_61_33)"/>
<path d="M143.525 134.91L141.941 136.494C141.488 136.947 141.074 136.928 140.697 136.437L124.518 115.451C124.197 115.017 124.235 114.602 124.631 114.206L127.827 111.01C128.223 110.614 128.638 110.576 129.072 110.897L150.03 127.104C150.521 127.481 150.539 127.896 150.087 128.348L148.164 130.271C147.768 130.667 147.353 130.705 146.919 130.385L144.402 128.433L141.658 131.177L143.582 133.666C143.921 134.118 143.902 134.533 143.525 134.91ZM138.688 127.302L139.226 127.952L141.206 125.972L140.555 125.435C134.861 120.759 130.854 117.374 128.534 115.281C131.193 118.354 134.578 122.361 138.688 127.302Z" fill="#FF0000"/>
<rect x="380.936" y="654.984" width="182.797" height="274.196" rx="9" transform="rotate(-45 380.936 654.984)" fill="url(#paint6_linear_61_33)"/>
<circle cx="515.579" cy="660.37" r="33.005" transform="rotate(-45 515.579 660.37)" fill="black"/>
<circle cx="529.941" cy="721.408" r="33.005" transform="rotate(-45 529.941 721.408)" fill="black"/>
<circle cx="576.617" cy="674.731" r="33.005" transform="rotate(-45 576.617 674.731)" fill="black"/>
<circle cx="542.508" cy="685.503" r="16.5025" transform="rotate(-45 542.508 685.503)" fill="black"/>
<path d="M540.767 685.449C540.767 685.449 556.841 699.994 567.886 707.29C577.788 713.832 594.57 721.407 594.57 721.407L576.617 739.36C576.617 739.36 568.98 722.424 562.5 712.676C555.134 701.594 540.767 685.449 540.767 685.449Z" fill="black"/>
<path d="M666.264 705.659L667.689 704.233C668.097 703.826 668.47 703.843 668.81 704.284L683.37 723.172C683.659 723.563 683.625 723.936 683.268 724.292L680.392 727.169C680.036 727.525 679.662 727.559 679.272 727.271L660.409 712.684C659.968 712.345 659.951 711.972 660.358 711.564L662.089 709.833C662.446 709.477 662.819 709.443 663.209 709.731L665.475 711.488L667.944 709.019L666.213 706.779C665.908 706.371 665.925 705.998 666.264 705.659ZM670.617 712.506L670.133 711.921L668.351 713.703L668.937 714.186C674.062 718.395 677.668 721.441 679.756 723.325C677.363 720.559 674.316 716.952 670.617 712.506Z" fill="black"/>
<path d="M418.752 671.795L417.326 673.221C416.919 673.628 416.545 673.611 416.206 673.17L401.645 654.282C401.357 653.891 401.391 653.518 401.747 653.162L404.624 650.285C404.98 649.929 405.353 649.895 405.744 650.183L424.607 664.77C425.048 665.109 425.065 665.482 424.657 665.89L422.926 667.621C422.57 667.977 422.197 668.011 421.806 667.722L419.541 665.966L417.072 668.435L418.803 670.675C419.108 671.083 419.091 671.456 418.752 671.795ZM414.399 664.948L414.882 665.533L416.664 663.751L416.079 663.268C410.954 659.059 407.347 656.013 405.26 654.129C407.653 656.895 410.699 660.502 414.399 664.948Z" fill="black"/>
<g opacity="0.85" filter="url(#filter0_d_61_33)">
<mask id="path-23-outside-1_61_33" maskUnits="userSpaceOnUse" x="343" y="424" width="236" height="608" fill="black">
<rect fill="white" x="343" y="424" width="236" height="608"/>
<path d="M476.6 1028H443C431.267 1028 425.4 1022.13 425.4 1010.4V992C393.933 989.333 373.133 981.067 363 967.2C352.333 951.733 347 925.067 347 887.2V816C347 804.267 352.867 798.4 364.6 798.4H407.8C419.533 798.4 425.4 804.267 425.4 816V874.4C425.4 889.333 427 899.467 430.2 904.8C433.933 909.6 441.4 912 452.6 912H463.8C475 912 482.2 909.6 485.4 904.8C488.6 899.467 490.2 889.333 490.2 874.4V849.6C490.2 831.467 486.733 817.067 479.8 806.4C473.933 796.267 457.4 780 430.2 757.6C395 728.8 372.333 705.6 362.2 688C352.067 669.867 347 645.6 347 615.2V568.8C347 530.4 352.333 504 363 489.6C374.2 474.667 395 466.4 425.4 464.8V445.6C425.4 433.867 431.267 428 443 428H476.6C488.333 428 494.2 433.867 494.2 445.6V464.8C525.133 465.867 546.2 473.867 557.4 488.8C568.6 503.733 574.2 530.4 574.2 568.8V629.6C574.2 641.333 568.333 647.2 556.6 647.2H513.4C501.667 647.2 495.8 641.333 495.8 629.6V581.6C495.8 566.667 493.933 556.8 490.2 552C487 546.667 479.8 544 468.6 544H457.4C446.2 544 438.733 546.667 435 552C431.8 556.8 430.2 566.667 430.2 581.6V607.2C430.2 625.333 433.667 639.733 440.6 650.4C447.533 661.067 464.333 677.333 491 699.2C525.133 726.933 547.533 750.133 558.2 768.8C568.867 787.467 574.2 811.733 574.2 841.6V887.2C574.2 925.6 568.6 952.267 557.4 967.2C546.2 982.133 525.133 990.4 494.2 992V1010.4C494.2 1022.13 488.333 1028 476.6 1028Z"/>
</mask>
<path d="M476.6 1028H443C431.267 1028 425.4 1022.13 425.4 1010.4V992C393.933 989.333 373.133 981.067 363 967.2C352.333 951.733 347 925.067 347 887.2V816C347 804.267 352.867 798.4 364.6 798.4H407.8C419.533 798.4 425.4 804.267 425.4 816V874.4C425.4 889.333 427 899.467 430.2 904.8C433.933 909.6 441.4 912 452.6 912H463.8C475 912 482.2 909.6 485.4 904.8C488.6 899.467 490.2 889.333 490.2 874.4V849.6C490.2 831.467 486.733 817.067 479.8 806.4C473.933 796.267 457.4 780 430.2 757.6C395 728.8 372.333 705.6 362.2 688C352.067 669.867 347 645.6 347 615.2V568.8C347 530.4 352.333 504 363 489.6C374.2 474.667 395 466.4 425.4 464.8V445.6C425.4 433.867 431.267 428 443 428H476.6C488.333 428 494.2 433.867 494.2 445.6V464.8C525.133 465.867 546.2 473.867 557.4 488.8C568.6 503.733 574.2 530.4 574.2 568.8V629.6C574.2 641.333 568.333 647.2 556.6 647.2H513.4C501.667 647.2 495.8 641.333 495.8 629.6V581.6C495.8 566.667 493.933 556.8 490.2 552C487 546.667 479.8 544 468.6 544H457.4C446.2 544 438.733 546.667 435 552C431.8 556.8 430.2 566.667 430.2 581.6V607.2C430.2 625.333 433.667 639.733 440.6 650.4C447.533 661.067 464.333 677.333 491 699.2C525.133 726.933 547.533 750.133 558.2 768.8C568.867 787.467 574.2 811.733 574.2 841.6V887.2C574.2 925.6 568.6 952.267 557.4 967.2C546.2 982.133 525.133 990.4 494.2 992V1010.4C494.2 1022.13 488.333 1028 476.6 1028Z" fill="url(#paint7_linear_61_33)"/>
<path d="M425.4 992H429.4V988.325L425.738 988.014L425.4 992ZM363 967.2L359.707 969.471L359.738 969.516L359.77 969.56L363 967.2ZM430.2 904.8L426.77 906.858L426.894 907.065L427.043 907.256L430.2 904.8ZM485.4 904.8L488.728 907.019L488.781 906.94L488.83 906.858L485.4 904.8ZM479.8 806.4L476.338 808.404L476.39 808.493L476.446 808.58L479.8 806.4ZM430.2 757.6L432.743 754.512L432.733 754.504L430.2 757.6ZM362.2 688L358.708 689.951L358.721 689.974L358.734 689.996L362.2 688ZM363 489.6L359.8 487.2L359.793 487.21L359.786 487.219L363 489.6ZM425.4 464.8L425.61 468.794L429.4 468.595V464.8H425.4ZM494.2 464.8H490.2V468.664L494.062 468.798L494.2 464.8ZM557.4 488.8L560.6 486.4L557.4 488.8ZM490.2 552L486.77 554.058L486.894 554.265L487.043 554.456L490.2 552ZM435 552L431.723 549.706L431.697 549.743L431.672 549.781L435 552ZM440.6 650.4L443.954 648.22L443.954 648.22L440.6 650.4ZM491 699.2L488.464 702.293L488.471 702.299L488.478 702.304L491 699.2ZM558.2 768.8L554.727 770.785L554.727 770.785L558.2 768.8ZM557.4 967.2L554.2 964.8L557.4 967.2ZM494.2 992L493.993 988.005L490.2 988.202V992H494.2ZM476.6 1028V1024H443V1028V1032H476.6V1028ZM443 1028V1024C437.75 1024 434.547 1022.69 432.628 1020.77C430.71 1018.85 429.4 1015.65 429.4 1010.4H425.4H421.4C421.4 1016.88 423.024 1022.48 426.972 1026.43C430.92 1030.38 436.517 1032 443 1032V1028ZM425.4 1010.4H429.4V992H425.4H421.4V1010.4H425.4ZM425.4 992L425.738 988.014C394.531 985.37 375.286 977.233 366.23 964.84L363 967.2L359.77 969.56C370.981 984.9 393.336 993.297 425.062 995.986L425.4 992ZM363 967.2L366.293 964.929C356.362 950.529 351 924.936 351 887.2H347H343C343 925.197 348.305 952.937 359.707 969.471L363 967.2ZM347 887.2H351V816H347H343V887.2H347ZM347 816H351C351 810.75 352.31 807.547 354.228 805.628C356.147 803.71 359.35 802.4 364.6 802.4V798.4V794.4C358.117 794.4 352.52 796.024 348.572 799.972C344.624 803.92 343 809.517 343 816H347ZM364.6 798.4V802.4H407.8V798.4V794.4H364.6V798.4ZM407.8 798.4V802.4C413.05 802.4 416.253 803.71 418.172 805.628C420.09 807.547 421.4 810.75 421.4 816H425.4H429.4C429.4 809.517 427.776 803.92 423.828 799.972C419.88 796.024 414.283 794.4 407.8 794.4V798.4ZM425.4 816H421.4V874.4H425.4H429.4V816H425.4ZM425.4 874.4H421.4C421.4 881.99 421.805 888.481 422.649 893.824C423.484 899.111 424.789 903.557 426.77 906.858L430.2 904.8L433.63 902.742C432.411 900.71 431.316 897.422 430.551 892.576C429.795 887.786 429.4 881.743 429.4 874.4H425.4ZM430.2 904.8L427.043 907.256C431.979 913.603 441.142 916 452.6 916V912V908C441.658 908 435.887 905.597 433.357 902.344L430.2 904.8ZM452.6 912V916H463.8V912V908H452.6V912ZM463.8 912V916C475.154 916 484.31 913.646 488.728 907.019L485.4 904.8L482.072 902.581C480.09 905.554 474.846 908 463.8 908V912ZM485.4 904.8L488.83 906.858C490.811 903.557 492.116 899.111 492.951 893.824C493.795 888.481 494.2 881.99 494.2 874.4H490.2H486.2C486.2 881.743 485.805 887.786 485.049 892.576C484.284 897.422 483.189 900.71 481.97 902.742L485.4 904.8ZM490.2 874.4H494.2V849.6H490.2H486.2V874.4H490.2ZM490.2 849.6H494.2C494.2 831.007 490.652 815.756 483.154 804.22L479.8 806.4L476.446 808.58C482.814 818.377 486.2 831.926 486.2 849.6H490.2ZM479.8 806.4L483.262 804.396C480.048 798.846 474.129 791.938 465.805 783.749C457.424 775.502 446.392 765.753 432.743 754.512L430.2 757.6L427.657 760.688C441.208 771.847 452.043 781.431 460.195 789.451C468.404 797.528 473.685 803.821 476.338 808.404L479.8 806.4ZM430.2 757.6L432.733 754.504C397.558 725.725 375.405 702.918 365.666 686.004L362.2 688L358.734 689.996C369.262 708.282 392.442 731.875 427.667 760.696L430.2 757.6ZM362.2 688L365.692 686.049C356.011 668.725 351 645.212 351 615.2H347H343C343 645.988 348.122 671.008 358.708 689.951L362.2 688ZM347 615.2H351V568.8H347H343V615.2H347ZM347 568.8H351C351 530.467 356.384 505.252 366.214 491.981L363 489.6L359.786 487.219C348.283 502.748 343 530.333 343 568.8H347ZM363 489.6L366.2 492C376.342 478.477 395.661 470.371 425.61 468.794L425.4 464.8L425.19 460.806C394.339 462.429 372.058 470.856 359.8 487.2L363 489.6ZM425.4 464.8H429.4V445.6H425.4H421.4V464.8H425.4ZM425.4 445.6H429.4C429.4 440.35 430.71 437.147 432.628 435.228C434.547 433.31 437.75 432 443 432V428V424C436.517 424 430.92 425.624 426.972 429.572C423.024 433.52 421.4 439.117 421.4 445.6H425.4ZM443 428V432H476.6V428V424H443V428ZM476.6 428V432C481.85 432 485.053 433.31 486.972 435.228C488.89 437.147 490.2 440.35 490.2 445.6H494.2H498.2C498.2 439.117 496.576 433.52 492.628 429.572C488.68 425.624 483.083 424 476.6 424V428ZM494.2 445.6H490.2V464.8H494.2H498.2V445.6H494.2ZM494.2 464.8L494.062 468.798C524.567 469.849 544.092 477.723 554.2 491.2L557.4 488.8L560.6 486.4C548.308 470.01 525.7 461.884 494.338 460.802L494.2 464.8ZM557.4 488.8L554.2 491.2C564.561 505.015 570.2 530.511 570.2 568.8H574.2H578.2C578.2 530.289 572.639 502.452 560.6 486.4L557.4 488.8ZM574.2 568.8H570.2V629.6H574.2H578.2V568.8H574.2ZM574.2 629.6H570.2C570.2 634.85 568.89 638.053 566.972 639.972C565.053 641.89 561.85 643.2 556.6 643.2V647.2V651.2C563.083 651.2 568.68 649.576 572.628 645.628C576.576 641.68 578.2 636.083 578.2 629.6H574.2ZM556.6 647.2V643.2H513.4V647.2V651.2H556.6V647.2ZM513.4 647.2V643.2C508.15 643.2 504.947 641.89 503.028 639.972C501.11 638.053 499.8 634.85 499.8 629.6H495.8H491.8C491.8 636.083 493.424 641.68 497.372 645.628C501.32 649.576 506.917 651.2 513.4 651.2V647.2ZM495.8 629.6H499.8V581.6H495.8H491.8V629.6H495.8ZM495.8 581.6H499.8C499.8 573.992 499.326 567.522 498.33 562.256C497.347 557.058 495.789 552.671 493.357 549.544L490.2 552L487.043 554.456C488.344 556.129 489.587 559.076 490.47 563.744C491.34 568.345 491.8 574.275 491.8 581.6H495.8ZM490.2 552L493.63 549.942C489.275 542.683 480.087 540 468.6 540V544V548C479.513 548 484.725 550.65 486.77 554.058L490.2 552ZM468.6 544V540H457.4V544V548H468.6V544ZM457.4 544V540C445.824 540 436.614 542.719 431.723 549.706L435 552L438.277 554.294C440.853 550.614 446.576 548 457.4 548V544ZM435 552L431.672 549.781C429.602 552.885 428.286 557.217 427.452 562.36C426.605 567.581 426.2 574.013 426.2 581.6H430.2H434.2C434.2 574.254 434.595 568.286 435.348 563.64C436.114 558.917 437.198 555.915 438.328 554.219L435 552ZM430.2 581.6H426.2V607.2H430.2H434.2V581.6H430.2ZM430.2 607.2H426.2C426.2 625.793 429.748 641.044 437.246 652.58L440.6 650.4L443.954 648.22C437.586 638.423 434.2 624.874 434.2 607.2H430.2ZM440.6 650.4L437.246 652.58C444.565 663.839 461.845 680.466 488.464 702.293L491 699.2L493.536 696.107C466.821 674.201 450.502 658.294 443.954 648.22L440.6 650.4ZM491 699.2L488.478 702.304C522.543 729.983 544.448 752.796 554.727 770.785L558.2 768.8L561.673 766.815C550.619 747.47 527.723 723.884 493.522 696.096L491 699.2ZM558.2 768.8L554.727 770.785C564.94 788.657 570.2 812.172 570.2 841.6H574.2H578.2C578.2 811.295 572.794 786.277 561.673 766.815L558.2 768.8ZM574.2 841.6H570.2V887.2H574.2H578.2V841.6H574.2ZM574.2 887.2H570.2C570.2 925.489 564.561 950.985 554.2 964.8L557.4 967.2L560.6 969.6C572.639 953.548 578.2 925.711 578.2 887.2H574.2ZM557.4 967.2L554.2 964.8C544.069 978.308 524.504 986.427 493.993 988.005L494.2 992L494.407 995.995C525.763 994.373 548.331 985.959 560.6 969.6L557.4 967.2ZM494.2 992H490.2V1010.4H494.2H498.2V992H494.2ZM494.2 1010.4H490.2C490.2 1015.65 488.89 1018.85 486.972 1020.77C485.053 1022.69 481.85 1024 476.6 1024V1028V1032C483.083 1032 488.68 1030.38 492.628 1026.43C496.576 1022.48 498.2 1016.88 498.2 1010.4H494.2Z" fill="#F2FF00" mask="url(#path-23-outside-1_61_33)"/>
</g>
<defs>
<filter id="filter0_d_61_33" x="341" y="424" width="243.2" height="617" filterUnits="userSpaceOnUse" color-interpolation-filters="sRGB">
<feFlood flood-opacity="0" result="BackgroundImageFix"/>
<feColorMatrix in="SourceAlpha" type="matrix" values="0 0 0 0 0 0 0 0 0 0 0 0 0 0 0 0 0 0 127 0" result="hardAlpha"/>
<feOffset dx="2" dy="5"/>
<feGaussianBlur stdDeviation="2"/>
<feComposite in2="hardAlpha" operator="out"/>
<feColorMatrix type="matrix" values="0 0 0 0 0 0 0 0 0 0 0 0 0 0 0 0 0 0 0.5 0"/>
<feBlend mode="normal" in2="BackgroundImageFix" result="effect1_dropShadow_61_33"/>
<feBlend mode="normal" in="SourceGraphic" in2="effect1_dropShadow_61_33" result="shape"/>
</filter>
<linearGradient id="paint0_linear_61_33" x1="482.336" y1="294.29" x2="482.336" y2="844.917" gradientUnits="userSpaceOnUse">
<stop stop-color="white"/>
<stop offset="0.336556" stop-color="white"/>
<stop offset="0.548106" stop-color="white"/>
<stop offset="1" stop-color="#A6A6A6"/>
</linearGradient>
<linearGradient id="paint1_linear_61_33" x1="819.732" y1="364.59" x2="902.65" y2="447.508" gradientUnits="userSpaceOnUse">
<stop/>
</linearGradient>
<linearGradient id="paint2_linear_61_33" x1="138.513" y1="417.237" x2="138.513" y2="832.776" gradientUnits="userSpaceOnUse">
<stop stop-color="white"/>
<stop offset="0.34" stop-color="white"/>
<stop offset="0.55" stop-color="white"/>
<stop offset="1" stop-color="#A6A6A6"/>
</linearGradient>
<linearGradient id="paint3_linear_61_33" x1="393.134" y1="470.29" x2="455.709" y2="532.865" gradientUnits="userSpaceOnUse">
<stop stop-color="#FF0000"/>
<stop offset="1" stop-color="#990000"/>
</linearGradient>
<linearGradient id="paint4_linear_61_33" x1="187.626" y1="117.324" x2="187.626" y2="366.204" gradientUnits="userSpaceOnUse">
<stop stop-color="white"/>
<stop offset="0.34" stop-color="white"/>
<stop offset="0.55" stop-color="white"/>
<stop offset="1" stop-color="#A6A6A6"/>
</linearGradient>
<linearGradient id="paint5_linear_61_33" x1="340.127" y1="149.099" x2="377.606" y2="186.577" gradientUnits="userSpaceOnUse">
<stop stop-color="#FF0000"/>
<stop offset="1" stop-color="#990000"/>
</linearGradient>
<linearGradient id="paint6_linear_61_33" x1="472.335" y1="654.984" x2="472.335" y2="929.179" gradientUnits="userSpaceOnUse">
<stop stop-color="white"/>
<stop offset="0.34" stop-color="white"/>
<stop offset="0.55" stop-color="white"/>
<stop offset="1" stop-color="#A6A6A6"/>
</linearGradient>
<linearGradient id="paint7_linear_61_33" x1="470" y1="343" x2="470" y2="1036" gradientUnits="userSpaceOnUse">
<stop stop-color="#0BBA23"/>
<stop offset="1" stop-color="#055410"/>
</linearGradient>
</defs>
</svg>
