<svg width="192" height="41" viewBox="0 0 192 41" fill="none" xmlns="http://www.w3.org/2000/svg">
<g filter="url(#filter0_d_3_48)">
<mask id="path-1-outside-1_3_48" maskUnits="userSpaceOnUse" x="4" y="0" width="184" height="33" fill="black">
<rect fill="white" x="4" width="184" height="33"/>
<path d="M7 29.25V3H14.5V14.25H25.75V3H33.25V29.25H25.75V18H14.5V29.25H7ZM41 29.25V25.5H37.25V21.75H41V18H56V14.25H41V10.5H59.75V14.25H63.5V29.25H41ZM44.75 25.5H56V21.75H44.75V25.5ZM67.5 29.25V25.5H86.25V21.75H71.25V18H67.5V14.25H71.25V10.5H90V14.25H75V18H90V21.75H93.75V25.5H90V29.25H67.5ZM101.5 29.25V25.5H97.75V10.5H105.25V25.5H116.5V10.5H124V29.25H101.5ZM139.25 14.25H143V18H139.25V29.25H131.75V10.5H139.25V14.25ZM154.25 10.5V14.25H143V10.5H154.25ZM162 29.25V25.5H158.25V21.75H162V18H177V14.25H162V10.5H180.75V14.25H184.5V29.25H162ZM165.75 25.5H177V21.75H165.75V25.5Z"/>
</mask>
<path d="M7 29.25V3H14.5V14.25H25.75V3H33.25V29.25H25.75V18H14.5V29.25H7ZM41 29.25V25.5H37.25V21.75H41V18H56V14.25H41V10.5H59.75V14.25H63.5V29.25H41ZM44.75 25.5H56V21.75H44.75V25.5ZM67.5 29.25V25.5H86.25V21.75H71.25V18H67.5V14.25H71.25V10.5H90V14.25H75V18H90V21.75H93.75V25.5H90V29.25H67.5ZM101.5 29.25V25.5H97.75V10.5H105.25V25.5H116.5V10.5H124V29.25H101.5ZM139.25 14.25H143V18H139.25V29.25H131.75V10.5H139.25V14.25ZM154.25 10.5V14.25H143V10.5H154.25ZM162 29.25V25.5H158.25V21.75H162V18H177V14.25H162V10.5H180.75V14.25H184.5V29.25H162ZM165.75 25.5H177V21.75H165.75V25.5Z" fill="url(#paint0_linear_3_48)"/>
<path d="M7 29.25H4V32.25H7V29.25ZM7 3V0H4V3H7ZM14.5 3H17.5V0H14.5V3ZM14.5 14.25H11.5V17.25H14.5V14.25ZM25.75 14.25V17.25H28.75V14.25H25.75ZM25.75 3V0H22.75V3H25.75ZM33.25 3H36.25V0H33.25V3ZM33.25 29.25V32.25H36.25V29.25H33.25ZM25.75 29.25H22.75V32.25H25.75V29.25ZM25.75 18H28.75V15H25.75V18ZM14.5 18V15H11.5V18H14.5ZM14.5 29.25V32.25H17.5V29.25H14.5ZM7 29.25H10V3H7H4V29.25H7ZM7 3V6H14.5V3V0H7V3ZM14.5 3H11.5V14.25H14.5H17.5V3H14.5ZM14.5 14.25V17.25H25.75V14.25V11.25H14.5V14.25ZM25.75 14.25H28.75V3H25.75H22.75V14.25H25.75ZM25.75 3V6H33.25V3V0H25.75V3ZM33.25 3H30.25V29.25H33.25H36.25V3H33.25ZM33.25 29.25V26.25H25.75V29.25V32.25H33.25V29.25ZM25.75 29.25H28.75V18H25.75H22.75V29.25H25.75ZM25.75 18V15H14.5V18V21H25.75V18ZM14.5 18H11.5V29.25H14.5H17.5V18H14.5ZM14.5 29.25V26.25H7V29.25V32.25H14.5V29.25ZM41 29.25H38V32.25H41V29.25ZM41 25.5H44V22.5H41V25.5ZM37.25 25.5H34.25V28.5H37.25V25.5ZM37.25 21.75V18.75H34.25V21.75H37.25ZM41 21.75V24.75H44V21.75H41ZM41 18V15H38V18H41ZM56 18V21H59V18H56ZM56 14.25H59V11.25H56V14.25ZM41 14.25H38V17.25H41V14.25ZM41 10.5V7.5H38V10.5H41ZM59.75 10.5H62.75V7.5H59.75V10.5ZM59.75 14.25H56.75V17.25H59.75V14.25ZM63.5 14.25H66.5V11.25H63.5V14.25ZM63.5 29.25V32.25H66.5V29.25H63.5ZM44.75 25.5H41.75V28.5H44.75V25.5ZM56 25.5V28.5H59V25.5H56ZM56 21.75H59V18.75H56V21.75ZM44.75 21.75V18.75H41.75V21.75H44.75ZM41 29.25H44V25.5H41H38V29.25H41ZM41 25.5V22.5H37.25V25.5V28.5H41V25.5ZM37.25 25.5H40.25V21.75H37.25H34.25V25.5H37.25ZM37.25 21.75V24.75H41V21.75V18.75H37.25V21.75ZM41 21.75H44V18H41H38V21.75H41ZM41 18V21H56V18V15H41V18ZM56 18H59V14.25H56H53V18H56ZM56 14.25V11.25H41V14.25V17.25H56V14.25ZM41 14.25H44V10.5H41H38V14.25H41ZM41 10.5V13.5H59.75V10.5V7.5H41V10.5ZM59.75 10.5H56.75V14.25H59.75H62.75V10.5H59.75ZM59.75 14.25V17.25H63.5V14.25V11.25H59.75V14.25ZM63.5 14.25H60.5V29.25H63.5H66.5V14.25H63.5ZM63.5 29.25V26.25H41V29.25V32.25H63.5V29.25ZM44.75 25.5V28.5H56V25.5V22.5H44.75V25.5ZM56 25.5H59V21.75H56H53V25.5H56ZM56 21.75V18.75H44.75V21.75V24.75H56V21.75ZM44.75 21.75H41.75V25.5H44.75H47.75V21.75H44.75ZM67.5 29.25H64.5V32.25H67.5V29.25ZM67.5 25.5V22.5H64.5V25.5H67.5ZM86.25 25.5V28.5H89.25V25.5H86.25ZM86.25 21.75H89.25V18.75H86.25V21.75ZM71.25 21.75H68.25V24.75H71.25V21.75ZM71.25 18H74.25V15H71.25V18ZM67.5 18H64.5V21H67.5V18ZM67.5 14.25V11.25H64.5V14.25H67.5ZM71.25 14.25V17.25H74.25V14.25H71.25ZM71.25 10.5V7.5H68.25V10.5H71.25ZM90 10.5H93V7.5H90V10.5ZM90 14.25V17.25H93V14.25H90ZM75 14.25V11.25H72V14.25H75ZM75 18H72V21H75V18ZM90 18H93V15H90V18ZM90 21.75H87V24.75H90V21.75ZM93.75 21.75H96.75V18.75H93.75V21.75ZM93.75 25.5V28.5H96.75V25.5H93.75ZM90 25.5V22.5H87V25.5H90ZM90 29.25V32.25H93V29.25H90ZM67.5 29.25H70.5V25.5H67.5H64.5V29.25H67.5ZM67.5 25.5V28.5H86.25V25.5V22.5H67.5V25.5ZM86.25 25.5H89.25V21.75H86.25H83.25V25.5H86.25ZM86.25 21.75V18.75H71.25V21.75V24.75H86.25V21.75ZM71.25 21.75H74.25V18H71.25H68.25V21.75H71.25ZM71.25 18V15H67.5V18V21H71.25V18ZM67.5 18H70.5V14.25H67.5H64.5V18H67.5ZM67.5 14.25V17.25H71.25V14.25V11.25H67.5V14.25ZM71.25 14.25H74.25V10.5H71.25H68.25V14.25H71.25ZM71.25 10.5V13.5H90V10.5V7.5H71.25V10.5ZM90 10.5H87V14.25H90H93V10.5H90ZM90 14.25V11.25H75V14.25V17.25H90V14.25ZM75 14.25H72V18H75H78V14.25H75ZM75 18V21H90V18V15H75V18ZM90 18H87V21.75H90H93V18H90ZM90 21.75V24.75H93.75V21.75V18.75H90V21.75ZM93.75 21.75H90.75V25.5H93.75H96.75V21.75H93.75ZM93.75 25.5V22.5H90V25.5V28.5H93.75V25.5ZM90 25.5H87V29.25H90H93V25.5H90ZM90 29.25V26.25H67.5V29.25V32.25H90V29.25ZM101.5 29.25H98.5V32.25H101.5V29.25ZM101.5 25.5H104.5V22.5H101.5V25.5ZM97.75 25.5H94.75V28.5H97.75V25.5ZM97.75 10.5V7.5H94.75V10.5H97.75ZM105.25 10.5H108.25V7.5H105.25V10.5ZM105.25 25.5H102.25V28.5H105.25V25.5ZM116.5 25.5V28.5H119.5V25.5H116.5ZM116.5 10.5V7.5H113.5V10.5H116.5ZM124 10.5H127V7.5H124V10.5ZM124 29.25V32.25H127V29.25H124ZM101.5 29.25H104.5V25.5H101.5H98.5V29.25H101.5ZM101.5 25.5V22.5H97.75V25.5V28.5H101.5V25.5ZM97.75 25.5H100.75V10.5H97.75H94.75V25.5H97.75ZM97.75 10.5V13.5H105.25V10.5V7.5H97.75V10.5ZM105.25 10.5H102.25V25.5H105.25H108.25V10.5H105.25ZM105.25 25.5V28.5H116.5V25.5V22.5H105.25V25.5ZM116.5 25.5H119.5V10.5H116.5H113.5V25.5H116.5ZM116.5 10.5V13.5H124V10.5V7.5H116.5V10.5ZM124 10.5H121V29.25H124H127V10.5H124ZM124 29.25V26.25H101.5V29.25V32.25H124V29.25ZM139.25 14.25H136.25V17.25H139.25V14.25ZM143 14.25H146V11.25H143V14.25ZM143 18V21H146V18H143ZM139.25 18V15H136.25V18H139.25ZM139.25 29.25V32.25H142.25V29.25H139.25ZM131.75 29.25H128.75V32.25H131.75V29.25ZM131.75 10.5V7.5H128.75V10.5H131.75ZM139.25 10.5H142.25V7.5H139.25V10.5ZM154.25 10.5H157.25V7.5H154.25V10.5ZM154.25 14.25V17.25H157.25V14.25H154.25ZM143 14.25H140V17.25H143V14.25ZM143 10.5V7.5H140V10.5H143ZM139.25 14.25V17.25H143V14.25V11.25H139.25V14.25ZM143 14.25H140V18H143H146V14.25H143ZM143 18V15H139.25V18V21H143V18ZM139.25 18H136.25V29.25H139.25H142.25V18H139.25ZM139.25 29.25V26.25H131.75V29.25V32.25H139.25V29.25ZM131.75 29.25H134.75V10.5H131.75H128.75V29.25H131.75ZM131.75 10.5V13.5H139.25V10.5V7.5H131.75V10.5ZM139.25 10.5H136.25V14.25H139.25H142.25V10.5H139.25ZM154.25 10.5H151.25V14.25H154.25H157.25V10.5H154.25ZM154.25 14.25V11.25H143V14.25V17.25H154.25V14.25ZM143 14.25H146V10.5H143H140V14.25H143ZM143 10.5V13.5H154.25V10.5V7.5H143V10.5ZM162 29.25H159V32.25H162V29.25ZM162 25.5H165V22.5H162V25.5ZM158.25 25.5H155.25V28.5H158.25V25.5ZM158.25 21.75V18.75H155.25V21.75H158.25ZM162 21.75V24.75H165V21.75H162ZM162 18V15H159V18H162ZM177 18V21H180V18H177ZM177 14.25H180V11.25H177V14.25ZM162 14.25H159V17.25H162V14.25ZM162 10.5V7.5H159V10.5H162ZM180.75 10.5H183.75V7.5H180.75V10.5ZM180.75 14.25H177.75V17.25H180.75V14.25ZM184.5 14.25H187.5V11.25H184.5V14.25ZM184.5 29.25V32.25H187.5V29.25H184.5ZM165.75 25.5H162.75V28.5H165.75V25.5ZM177 25.5V28.5H180V25.5H177ZM177 21.75H180V18.75H177V21.75ZM165.75 21.75V18.75H162.75V21.75H165.75ZM162 29.25H165V25.5H162H159V29.25H162ZM162 25.5V22.5H158.25V25.5V28.5H162V25.5ZM158.25 25.5H161.25V21.75H158.25H155.25V25.5H158.25ZM158.25 21.75V24.75H162V21.75V18.75H158.25V21.75ZM162 21.75H165V18H162H159V21.75H162ZM162 18V21H177V18V15H162V18ZM177 18H180V14.25H177H174V18H177ZM177 14.25V11.25H162V14.25V17.25H177V14.25ZM162 14.25H165V10.5H162H159V14.25H162ZM162 10.5V13.5H180.75V10.5V7.5H162V10.5ZM180.75 10.5H177.75V14.25H180.75H183.75V10.5H180.75ZM180.75 14.25V17.25H184.5V14.25V11.25H180.75V14.25ZM184.5 14.25H181.5V29.25H184.5H187.5V14.25H184.5ZM184.5 29.25V26.25H162V29.25V32.25H184.5V29.25ZM165.75 25.5V28.5H177V25.5V22.5H165.75V25.5ZM177 25.5H180V21.75H177H174V25.5H177ZM177 21.75V18.75H165.75V21.75V24.75H177V21.75ZM165.75 21.75H162.75V25.5H165.75H168.75V21.75H165.75Z" fill="url(#paint1_linear_3_48)" mask="url(#path-1-outside-1_3_48)"/>
</g>
<defs>
<filter id="filter0_d_3_48" x="0" y="0" width="191.5" height="40.25" filterUnits="userSpaceOnUse" color-interpolation-filters="sRGB">
<feFlood flood-opacity="0" result="BackgroundImageFix"/>
<feColorMatrix in="SourceAlpha" type="matrix" values="0 0 0 0 0 0 0 0 0 0 0 0 0 0 0 0 0 0 127 0" result="hardAlpha"/>
<feOffset dy="4"/>
<feGaussianBlur stdDeviation="2"/>
<feComposite in2="hardAlpha" operator="out"/>
<feColorMatrix type="matrix" values="0 0 0 0 0 0 0 0 0 0 0 0 0 0 0 0 0 0 0.4 0"/>
<feBlend mode="normal" in2="BackgroundImageFix" result="effect1_dropShadow_3_48"/>
<feBlend mode="normal" in="SourceGraphic" in2="effect1_dropShadow_3_48" result="shape"/>
</filter>
<linearGradient id="paint0_linear_3_48" x1="100" y1="8" x2="100" y2="30" gradientUnits="userSpaceOnUse">
<stop stop-color="#666666"/>
<stop offset="1"/>
</linearGradient>
<linearGradient id="paint1_linear_3_48" x1="100" y1="30" x2="100" y2="8" gradientUnits="userSpaceOnUse">
<stop stop-color="#666666"/>
<stop offset="1"/>
</linearGradient>
</defs>
</svg>
