<svg width="398" height="212" viewBox="0 0 398 212" fill="none" xmlns="http://www.w3.org/2000/svg">
<g filter="url(#filter0_d_12_1151)">
<mask id="path-1-outside-1_12_1151" maskUnits="userSpaceOnUse" x="3" y="0" width="390" height="122" fill="black">
<rect fill="white" x="3" width="390" height="122"/>
<path d="M77.888 19.48L61.664 111.64H15.584L31.808 19.48H77.888ZM22.4 105.88H56.96L71.168 25.24H36.608L25.952 85.72H46.112L45.056 91.48H24.896L22.4 105.88ZM48.416 39.64H54.176L48.608 71.32H42.848L48.416 39.64ZM103.513 103H57.4325L72.1205 19.48H118.201L103.513 103ZM76.9205 25.24L74.3285 39.64H94.4885L93.5285 45.4H73.3685L64.2485 97.24H98.8085L111.481 25.24H76.9205ZM81.1445 82.84L85.1765 59.8H90.9365L86.9045 82.84H81.1445ZM178.673 19.48L163.985 103H97.745L112.433 19.48H178.673ZM117.233 25.24L104.561 97.24H118.961L129.041 39.64H134.801L124.721 97.24H139.121L149.201 39.64H154.961L144.881 97.24H159.281L171.953 25.24H117.233ZM174.438 10.84H200.358L198.822 19.48H218.982L204.294 103H158.214L174.438 10.84ZM192.102 25.24L193.638 16.6H179.238L165.03 97.24H199.59L212.262 25.24H192.102ZM181.926 82.84L189.51 39.64H195.27L187.686 82.84H181.926ZM214.75 10.84H240.67L224.446 103H198.526L214.75 10.84ZM205.342 97.24H219.742L233.95 16.6H219.55L205.342 97.24ZM233.371 19.48H279.451L264.763 103H218.682L233.371 19.48ZM260.059 97.24L262.555 82.84H242.395L243.451 77.08H263.611L272.731 25.24H238.171L225.499 97.24H260.059ZM255.739 39.64L251.707 62.68H245.947L249.979 39.64H255.739ZM273.683 19.48H319.763L305.075 103H258.995L273.683 19.48ZM306.419 62.68L313.043 25.24H278.483L265.811 97.24H280.211L282.707 82.84H288.563L286.067 97.24H300.371L305.363 68.44H285.203L286.259 62.68H306.419ZM294.611 48.28H288.851L290.291 39.64H296.051L294.611 48.28ZM333.868 54.04H307.948L313.996 19.48H339.916L333.868 54.04ZM318.796 25.24L314.764 48.28H329.164L333.196 25.24H318.796ZM319.464 103L334.152 19.48H380.232L365.544 103H319.464ZM373.512 25.24H338.952L331.272 68.44H351.432L348.936 82.84H343.176L344.712 74.2H330.312L326.28 97.24H360.84L368.424 54.04H348.264L350.76 39.64H356.52L355.08 48.28H369.48L373.512 25.24Z"/>
</mask>
<path d="M77.888 19.48L61.664 111.64H15.584L31.808 19.48H77.888ZM22.4 105.88H56.96L71.168 25.24H36.608L25.952 85.72H46.112L45.056 91.48H24.896L22.4 105.88ZM48.416 39.64H54.176L48.608 71.32H42.848L48.416 39.64ZM103.513 103H57.4325L72.1205 19.48H118.201L103.513 103ZM76.9205 25.24L74.3285 39.64H94.4885L93.5285 45.4H73.3685L64.2485 97.24H98.8085L111.481 25.24H76.9205ZM81.1445 82.84L85.1765 59.8H90.9365L86.9045 82.84H81.1445ZM178.673 19.48L163.985 103H97.745L112.433 19.48H178.673ZM117.233 25.24L104.561 97.24H118.961L129.041 39.64H134.801L124.721 97.24H139.121L149.201 39.64H154.961L144.881 97.24H159.281L171.953 25.24H117.233ZM174.438 10.84H200.358L198.822 19.48H218.982L204.294 103H158.214L174.438 10.84ZM192.102 25.24L193.638 16.6H179.238L165.03 97.24H199.59L212.262 25.24H192.102ZM181.926 82.84L189.51 39.64H195.27L187.686 82.84H181.926ZM214.75 10.84H240.67L224.446 103H198.526L214.75 10.84ZM205.342 97.24H219.742L233.95 16.6H219.55L205.342 97.24ZM233.371 19.48H279.451L264.763 103H218.682L233.371 19.48ZM260.059 97.24L262.555 82.84H242.395L243.451 77.08H263.611L272.731 25.24H238.171L225.499 97.24H260.059ZM255.739 39.64L251.707 62.68H245.947L249.979 39.64H255.739ZM273.683 19.48H319.763L305.075 103H258.995L273.683 19.48ZM306.419 62.68L313.043 25.24H278.483L265.811 97.24H280.211L282.707 82.84H288.563L286.067 97.24H300.371L305.363 68.44H285.203L286.259 62.68H306.419ZM294.611 48.28H288.851L290.291 39.64H296.051L294.611 48.28ZM333.868 54.04H307.948L313.996 19.48H339.916L333.868 54.04ZM318.796 25.24L314.764 48.28H329.164L333.196 25.24H318.796ZM319.464 103L334.152 19.48H380.232L365.544 103H319.464ZM373.512 25.24H338.952L331.272 68.44H351.432L348.936 82.84H343.176L344.712 74.2H330.312L326.28 97.24H360.84L368.424 54.04H348.264L350.76 39.64H356.52L355.08 48.28H369.48L373.512 25.24Z" fill="url(#paint0_linear_12_1151)"/>
<path d="M77.888 19.48L87.7366 21.2138L89.8022 9.47999H77.888V19.48ZM61.664 111.64V121.64H70.0574L71.5126 113.374L61.664 111.64ZM15.584 111.64L5.73544 109.906L3.66981 121.64H15.584V111.64ZM31.808 19.48V9.47999H23.4146L21.9594 17.7462L31.808 19.48ZM22.4 105.88L12.5469 104.172L10.5176 115.88H22.4V105.88ZM56.96 105.88V115.88H65.3521L66.8083 107.615L56.96 105.88ZM71.168 25.24L81.0163 26.9752L83.0839 15.24H71.168V25.24ZM36.608 25.24V15.24H28.2159L26.7597 23.5048L36.608 25.24ZM25.952 85.72L16.1037 83.9848L14.0361 95.72H25.952V85.72ZM46.112 85.72L55.9481 87.5233L58.112 75.72H46.112V85.72ZM45.056 91.48V101.48H53.3893L54.8921 93.2833L45.056 91.48ZM24.896 91.48V81.48H16.4802L15.0429 89.7721L24.896 91.48ZM48.416 39.64V29.64H40.0203L38.567 37.909L48.416 39.64ZM54.176 39.64L64.025 41.371L66.0869 29.64H54.176V39.64ZM48.608 71.32V81.32H57.0037L58.457 73.051L48.608 71.32ZM42.848 71.32L32.999 69.589L30.9371 81.32H42.848V71.32ZM77.888 19.48L68.0394 17.7462L51.8154 109.906L61.664 111.64L71.5126 113.374L87.7366 21.2138L77.888 19.48ZM61.664 111.64V101.64H15.584V111.64V121.64H61.664V111.64ZM15.584 111.64L25.4326 113.374L41.6566 21.2137L31.808 19.48L21.9594 17.7462L5.73544 109.906L15.584 111.64ZM31.808 19.48V29.48H77.888V19.48V9.47999H31.808V19.48ZM22.4 105.88V115.88H56.96V105.88V95.88H22.4V105.88ZM56.96 105.88L66.8083 107.615L81.0163 26.9752L71.168 25.24L61.3197 23.5048L47.1117 104.145L56.96 105.88ZM71.168 25.24V15.24H36.608V25.24V35.24H71.168V25.24ZM36.608 25.24L26.7597 23.5048L16.1037 83.9848L25.952 85.72L35.8003 87.4552L46.4563 26.9752L36.608 25.24ZM25.952 85.72V95.72H46.112V85.72V75.72H25.952V85.72ZM46.112 85.72L36.2759 83.9167L35.2199 89.6767L45.056 91.48L54.8921 93.2833L55.9481 87.5233L46.112 85.72ZM45.056 91.48V81.48H24.896V91.48V101.48H45.056V91.48ZM24.896 91.48L15.0429 89.7721L12.5469 104.172L22.4 105.88L32.2531 107.588L34.7491 93.1879L24.896 91.48ZM48.416 39.64V49.64H54.176V39.64V29.64H48.416V39.64ZM54.176 39.64L44.327 37.909L38.759 69.589L48.608 71.32L58.457 73.051L64.025 41.371L54.176 39.64ZM48.608 71.32V61.32H42.848V71.32V81.32H48.608V71.32ZM42.848 71.32L52.697 73.051L58.265 41.371L48.416 39.64L38.567 37.909L32.999 69.589L42.848 71.32ZM103.513 103V113H111.907L113.361 104.732L103.513 103ZM57.4325 103L47.5836 101.268L45.5204 113H57.4325V103ZM72.1205 19.48V9.47999H63.7257L62.2716 17.748L72.1205 19.48ZM118.201 19.48L128.049 21.212L130.113 9.47999H118.201V19.48ZM76.9205 25.24V15.24H68.5598L67.0787 23.4685L76.9205 25.24ZM74.3285 39.64L64.4867 37.8685L62.3678 49.64H74.3285V39.64ZM94.4885 39.64L104.352 41.284L106.293 29.64H94.4885V39.64ZM93.5285 45.4V55.4H102L103.392 47.044L93.5285 45.4ZM73.3685 45.4V35.4H64.9742L63.5197 43.6673L73.3685 45.4ZM64.2485 97.24L54.3997 95.5073L52.3357 107.24H64.2485V97.24ZM98.8085 97.24V107.24H107.202L108.657 98.9734L98.8085 97.24ZM111.481 25.24L121.329 26.9734L123.394 15.24H111.481V25.24ZM81.1445 82.84L71.2942 81.1162L69.2425 92.84H81.1445V82.84ZM85.1765 59.8V49.8H76.7745L75.3262 58.0762L85.1765 59.8ZM90.9365 59.8L100.787 61.5238L102.838 49.8H90.9365V59.8ZM86.9045 82.84V92.84H95.3065L96.7548 84.5638L86.9045 82.84ZM103.513 103V93H57.4325V103V113H103.513V103ZM57.4325 103L67.2814 104.732L81.9694 21.212L72.1205 19.48L62.2716 17.748L47.5836 101.268L57.4325 103ZM72.1205 19.48V29.48H118.201V19.48V9.47999H72.1205V19.48ZM118.201 19.48L108.352 17.748L93.6636 101.268L103.513 103L113.361 104.732L128.049 21.212L118.201 19.48ZM76.9205 25.24L67.0787 23.4685L64.4867 37.8685L74.3285 39.64L84.1703 41.4115L86.7623 27.0115L76.9205 25.24ZM74.3285 39.64V49.64H94.4885V39.64V29.64H74.3285V39.64ZM94.4885 39.64L84.6246 37.996L83.6646 43.756L93.5285 45.4L103.392 47.044L104.352 41.284L94.4885 39.64ZM93.5285 45.4V35.4H73.3685V45.4V55.4H93.5285V45.4ZM73.3685 45.4L63.5197 43.6673L54.3997 95.5073L64.2485 97.24L74.0973 98.9726L83.2173 47.1326L73.3685 45.4ZM64.2485 97.24V107.24H98.8085V97.24V87.24H64.2485V97.24ZM98.8085 97.24L108.657 98.9734L121.329 26.9734L111.481 25.24L101.632 23.5066L88.9599 95.5066L98.8085 97.24ZM111.481 25.24V15.24H76.9205V25.24V35.24H111.481V25.24ZM81.1445 82.84L90.9948 84.5638L95.0268 61.5238L85.1765 59.8L75.3262 58.0762L71.2942 81.1162L81.1445 82.84ZM85.1765 59.8V69.8H90.9365V59.8V49.8H85.1765V59.8ZM90.9365 59.8L81.0862 58.0762L77.0542 81.1162L86.9045 82.84L96.7548 84.5638L100.787 61.5238L90.9365 59.8ZM86.9045 82.84V72.84H81.1445V82.84V92.84H86.9045V82.84ZM178.673 19.48L188.522 21.212L190.585 9.47999H178.673V19.48ZM163.985 103V113H172.38L173.834 104.732L163.985 103ZM97.745 103L87.8961 101.268L85.8329 113H97.745V103ZM112.433 19.48V9.47999H104.038L102.584 17.748L112.433 19.48ZM117.233 25.24V15.24H108.839L107.384 23.5066L117.233 25.24ZM104.561 97.24L94.7124 95.5066L92.6473 107.24H104.561V97.24ZM118.961 97.24V107.24H127.363L128.811 98.9638L118.961 97.24ZM129.041 39.64V29.64H120.639L119.191 37.9162L129.041 39.64ZM134.801 39.64L144.651 41.3638L146.703 29.64H134.801V39.64ZM124.721 97.24L114.871 95.5162L112.819 107.24H124.721V97.24ZM139.121 97.24V107.24H147.523L148.971 98.9638L139.121 97.24ZM149.201 39.64V29.64H140.799L139.351 37.9162L149.201 39.64ZM154.961 39.64L164.811 41.3638L166.863 29.64H154.961V39.64ZM144.881 97.24L135.031 95.5162L132.979 107.24H144.881V97.24ZM159.281 97.24V107.24H167.675L169.13 98.9734L159.281 97.24ZM171.953 25.24L181.802 26.9734L183.867 15.24H171.953V25.24ZM178.673 19.48L168.824 17.748L154.136 101.268L163.985 103L173.834 104.732L188.522 21.212L178.673 19.48ZM163.985 103V93H97.745V103V113H163.985V103ZM97.745 103L107.594 104.732L122.282 21.212L112.433 19.48L102.584 17.748L87.8961 101.268L97.745 103ZM112.433 19.48V29.48H178.673V19.48V9.47999H112.433V19.48ZM117.233 25.24L107.384 23.5066L94.7124 95.5066L104.561 97.24L114.41 98.9734L127.082 26.9734L117.233 25.24ZM104.561 97.24V107.24H118.961V97.24V87.24H104.561V97.24ZM118.961 97.24L128.811 98.9638L138.891 41.3638L129.041 39.64L119.191 37.9162L109.111 95.5162L118.961 97.24ZM129.041 39.64V49.64H134.801V39.64V29.64H129.041V39.64ZM134.801 39.64L124.951 37.9162L114.871 95.5162L124.721 97.24L134.571 98.9638L144.651 41.3638L134.801 39.64ZM124.721 97.24V107.24H139.121V97.24V87.24H124.721V97.24ZM139.121 97.24L148.971 98.9638L159.051 41.3638L149.201 39.64L139.351 37.9162L129.271 95.5162L139.121 97.24ZM149.201 39.64V49.64H154.961V39.64V29.64H149.201V39.64ZM154.961 39.64L145.111 37.9162L135.031 95.5162L144.881 97.24L154.731 98.9638L164.811 41.3638L154.961 39.64ZM144.881 97.24V107.24H159.281V97.24V87.24H144.881V97.24ZM159.281 97.24L169.13 98.9734L181.802 26.9734L171.953 25.24L162.104 23.5066L149.432 95.5066L159.281 97.24ZM171.953 25.24V15.24H117.233V25.24V35.24H171.953V25.24ZM174.438 10.84V0.839996H166.044L164.589 9.10624L174.438 10.84ZM200.358 10.84L210.203 12.5903L212.292 0.839996H200.358V10.84ZM198.822 19.48L188.976 17.7297L186.887 29.48H198.822V19.48ZM218.982 19.48L228.831 21.212L230.894 9.47999H218.982V19.48ZM204.294 103V113H212.689L214.143 104.732L204.294 103ZM158.214 103L148.365 101.266L146.3 113H158.214V103ZM192.102 25.24L182.256 23.4897L180.167 35.24H192.102V25.24ZM193.638 16.6L203.483 18.3503L205.572 6.6H193.638V16.6ZM179.238 16.6V6.6H170.846L169.389 14.8648L179.238 16.6ZM165.03 97.24L155.181 95.5048L153.114 107.24H165.03V97.24ZM199.59 97.24V107.24H207.983L209.438 98.9734L199.59 97.24ZM212.262 25.24L222.11 26.9734L224.175 15.24H212.262V25.24ZM181.926 82.84L172.076 81.1109L170.017 92.84H181.926V82.84ZM189.51 39.64V29.64H181.112L179.66 37.9109L189.51 39.64ZM195.27 39.64L205.119 41.3691L207.178 29.64H195.27V39.64ZM187.686 82.84V92.84H196.083L197.535 84.5691L187.686 82.84ZM174.438 10.84V20.84H200.358V10.84V0.839996H174.438V10.84ZM200.358 10.84L190.512 9.08966L188.976 17.7297L198.822 19.48L208.667 21.2303L210.203 12.5903L200.358 10.84ZM198.822 19.48V29.48H218.982V19.48V9.47999H198.822V19.48ZM218.982 19.48L209.133 17.748L194.445 101.268L204.294 103L214.143 104.732L228.831 21.212L218.982 19.48ZM204.294 103V93H158.214V103V113H204.294V103ZM158.214 103L168.062 104.734L184.286 12.5738L174.438 10.84L164.589 9.10624L148.365 101.266L158.214 103ZM192.102 25.24L201.947 26.9903L203.483 18.3503L193.638 16.6L183.792 14.8497L182.256 23.4897L192.102 25.24ZM193.638 16.6V6.6H179.238V16.6V26.6H193.638V16.6ZM179.238 16.6L169.389 14.8648L155.181 95.5048L165.03 97.24L174.878 98.9752L189.086 18.3352L179.238 16.6ZM165.03 97.24V107.24H199.59V97.24V87.24H165.03V97.24ZM199.59 97.24L209.438 98.9734L222.11 26.9734L212.262 25.24L202.413 23.5066L189.741 95.5066L199.59 97.24ZM212.262 25.24V15.24H192.102V25.24V35.24H212.262V25.24ZM181.926 82.84L191.775 84.5691L199.359 41.3691L189.51 39.64L179.66 37.9109L172.076 81.1109L181.926 82.84ZM189.51 39.64V49.64H195.27V39.64V29.64H189.51V39.64ZM195.27 39.64L185.42 37.9109L177.836 81.1109L187.686 82.84L197.535 84.5691L205.119 41.3691L195.27 39.64ZM187.686 82.84V72.84H181.926V82.84V92.84H187.686V82.84ZM214.75 10.84V0.839996H206.357L204.902 9.10624L214.75 10.84ZM240.67 10.84L250.519 12.5738L252.584 0.839996H240.67V10.84ZM224.446 103V113H232.84L234.295 104.734L224.446 103ZM198.526 103L188.678 101.266L186.612 113H198.526V103ZM205.342 97.24L195.494 95.5048L193.426 107.24H205.342V97.24ZM219.742 97.24V107.24H228.134L229.591 98.9752L219.742 97.24ZM233.95 16.6L243.799 18.3352L245.866 6.6H233.95V16.6ZM219.55 16.6V6.6H211.158L209.702 14.8648L219.55 16.6ZM214.75 10.84V20.84H240.67V10.84V0.839996H214.75V10.84ZM240.67 10.84L230.822 9.10624L214.598 101.266L224.446 103L234.295 104.734L250.519 12.5738L240.67 10.84ZM224.446 103V93H198.526V103V113H224.446V103ZM198.526 103L208.375 104.734L224.599 12.5738L214.75 10.84L204.902 9.10624L188.678 101.266L198.526 103ZM205.342 97.24V107.24H219.742V97.24V87.24H205.342V97.24ZM219.742 97.24L229.591 98.9752L243.799 18.3352L233.95 16.6L224.102 14.8648L209.894 95.5048L219.742 97.24ZM233.95 16.6V6.6H219.55V16.6V26.6H233.95V16.6ZM219.55 16.6L209.702 14.8648L195.494 95.5048L205.342 97.24L215.191 98.9752L229.399 18.3352L219.55 16.6ZM233.37 19.48V9.47999H224.976L223.522 17.748L233.37 19.48ZM279.451 19.48L289.299 21.212L291.363 9.47999H279.451V19.48ZM264.762 103V113H273.157L274.611 104.732L264.762 103ZM218.682 103L208.834 101.268L206.77 113H218.682V103ZM260.059 97.24V107.24H268.474L269.912 98.9479L260.059 97.24ZM262.555 82.84L272.408 84.5479L274.437 72.84H262.555V82.84ZM242.395 82.84L232.558 81.0367L230.395 92.84H242.395V82.84ZM243.451 77.08V67.08H235.117L233.614 75.2767L243.451 77.08ZM263.611 77.08V87.08H272.005L273.459 78.8126L263.611 77.08ZM272.73 25.24L282.579 26.9726L284.643 15.24H272.73V25.24ZM238.171 25.24V15.24H229.777L228.322 23.5066L238.171 25.24ZM225.499 97.24L215.65 95.5066L213.585 107.24H225.499V97.24ZM255.738 39.64L265.589 41.3638L267.64 29.64H255.738V39.64ZM251.706 62.68V72.68H260.108L261.557 64.4038L251.706 62.68ZM245.947 62.68L236.096 60.9562L234.045 72.68H245.947V62.68ZM249.979 39.64V29.64H241.577L240.128 37.9162L249.979 39.64ZM233.37 19.48V29.48H279.451V19.48V9.47999H233.37V19.48ZM279.451 19.48L269.602 17.748L254.914 101.268L264.762 103L274.611 104.732L289.299 21.212L279.451 19.48ZM264.762 103V93H218.682V103V113H264.762V103ZM218.682 103L228.531 104.732L243.219 21.212L233.37 19.48L223.522 17.748L208.834 101.268L218.682 103ZM260.059 97.24L269.912 98.9479L272.408 84.5479L262.555 82.84L252.701 81.1321L250.205 95.5321L260.059 97.24ZM262.555 82.84V72.84H242.395V82.84V92.84H262.555V82.84ZM242.395 82.84L252.231 84.6433L253.287 78.8833L243.451 77.08L233.614 75.2767L232.558 81.0367L242.395 82.84ZM243.451 77.08V87.08H263.611V77.08V67.08H243.451V77.08ZM263.611 77.08L273.459 78.8126L282.579 26.9726L272.73 25.24L262.882 23.5073L253.762 75.3473L263.611 77.08ZM272.73 25.24V15.24H238.171V25.24V35.24H272.73V25.24ZM238.171 25.24L228.322 23.5066L215.65 95.5066L225.499 97.24L235.347 98.9734L248.019 26.9734L238.171 25.24ZM225.499 97.24V107.24H260.059V97.24V87.24H225.499V97.24ZM255.738 39.64L245.888 37.9162L241.856 60.9562L251.706 62.68L261.557 64.4038L265.589 41.3638L255.738 39.64ZM251.706 62.68V52.68H245.947V62.68V72.68H251.706V62.68ZM245.947 62.68L255.797 64.4038L259.829 41.3638L249.979 39.64L240.128 37.9162L236.096 60.9562L245.947 62.68ZM249.979 39.64V49.64H255.738V39.64V29.64H249.979V39.64ZM273.683 19.48V9.47999H265.288L263.834 17.748L273.683 19.48ZM319.763 19.48L329.612 21.212L331.675 9.47999H319.763V19.48ZM305.075 103V113H313.47L314.924 104.732L305.075 103ZM258.995 103L249.146 101.268L247.083 113H258.995V103ZM306.419 62.68V72.68H314.805L316.266 64.4222L306.419 62.68ZM313.043 25.24L322.89 26.9822L324.968 15.24H313.043V25.24ZM278.483 25.24V15.24H270.089L268.634 23.5066L278.483 25.24ZM265.811 97.24L255.962 95.5066L253.897 107.24H265.811V97.24ZM280.211 97.24V107.24H288.627L290.064 98.9479L280.211 97.24ZM282.707 82.84V72.84H274.291L272.854 81.1321L282.707 82.84ZM288.563 82.84L298.416 84.5479L300.445 72.84H288.563V82.84ZM286.067 97.24L276.214 95.5321L274.185 107.24H286.067V97.24ZM300.371 97.24V107.24H308.787L310.224 98.9479L300.371 97.24ZM305.363 68.44L315.216 70.1479L317.245 58.44H305.363V68.44ZM285.203 68.44L275.367 66.6367L273.203 78.44H285.203V68.44ZM286.259 62.68V52.68H277.926L276.423 60.8767L286.259 62.68ZM294.611 48.28V58.28H303.082L304.475 49.924L294.611 48.28ZM288.851 48.28L278.987 46.636L277.046 58.28H288.851V48.28ZM290.291 39.64V29.64H281.82L280.427 37.996L290.291 39.64ZM296.051 39.64L305.915 41.284L307.856 29.64H296.051V39.64ZM273.683 19.48V29.48H319.763V19.48V9.47999H273.683V19.48ZM319.763 19.48L309.914 17.748L295.226 101.268L305.075 103L314.924 104.732L329.612 21.212L319.763 19.48ZM305.075 103V93H258.995V103V113H305.075V103ZM258.995 103L268.844 104.732L283.532 21.212L273.683 19.48L263.834 17.748L249.146 101.268L258.995 103ZM306.419 62.68L316.266 64.4222L322.89 26.9822L313.043 25.24L303.196 23.4978L296.572 60.9378L306.419 62.68ZM313.043 25.24V15.24H278.483V25.24V35.24H313.043V25.24ZM278.483 25.24L268.634 23.5066L255.962 95.5066L265.811 97.24L275.66 98.9734L288.332 26.9734L278.483 25.24ZM265.811 97.24V107.24H280.211V97.24V87.24H265.811V97.24ZM280.211 97.24L290.064 98.9479L292.56 84.5479L282.707 82.84L272.854 81.1321L270.358 95.5321L280.211 97.24ZM282.707 82.84V92.84H288.563V82.84V72.84H282.707V82.84ZM288.563 82.84L278.71 81.1321L276.214 95.5321L286.067 97.24L295.92 98.9479L298.416 84.5479L288.563 82.84ZM286.067 97.24V107.24H300.371V97.24V87.24H286.067V97.24ZM300.371 97.24L310.224 98.9479L315.216 70.1479L305.363 68.44L295.51 66.7321L290.518 95.5321L300.371 97.24ZM305.363 68.44V58.44H285.203V68.44V78.44H305.363V68.44ZM285.203 68.44L295.039 70.2433L296.095 64.4833L286.259 62.68L276.423 60.8767L275.367 66.6367L285.203 68.44ZM286.259 62.68V72.68H306.419V62.68V52.68H286.259V62.68ZM294.611 48.28V38.28H288.851V48.28V58.28H294.611V48.28ZM288.851 48.28L298.715 49.924L300.155 41.284L290.291 39.64L280.427 37.996L278.987 46.636L288.851 48.28ZM290.291 39.64V49.64H296.051V39.64V29.64H290.291V39.64ZM296.051 39.64L286.187 37.996L284.747 46.636L294.611 48.28L304.475 49.924L305.915 41.284L296.051 39.64ZM333.867 54.04V64.04H342.269L343.718 55.7638L333.867 54.04ZM307.948 54.04L298.097 52.3162L296.046 64.04H307.948V54.04ZM313.996 19.48V9.47999H305.594L304.145 17.7562L313.996 19.48ZM339.915 19.48L349.766 21.2038L351.817 9.47999H339.915V19.48ZM318.796 25.24V15.24H310.394L308.945 23.5162L318.796 25.24ZM314.763 48.28L304.913 46.5562L302.862 58.28H314.763V48.28ZM329.164 48.28V58.28H337.565L339.014 50.0038L329.164 48.28ZM333.195 25.24L343.046 26.9638L345.097 15.24H333.195V25.24ZM333.867 54.04V44.04H307.948V54.04V64.04H333.867V54.04ZM307.948 54.04L317.798 55.7638L323.846 21.2038L313.996 19.48L304.145 17.7562L298.097 52.3162L307.948 54.04ZM313.996 19.48V29.48H339.915V19.48V9.47999H313.996V19.48ZM339.915 19.48L330.065 17.7562L324.017 52.3162L333.867 54.04L343.718 55.7638L349.766 21.2038L339.915 19.48ZM318.796 25.24L308.945 23.5162L304.913 46.5562L314.763 48.28L324.614 50.0038L328.646 26.9638L318.796 25.24ZM314.763 48.28V58.28H329.164V48.28V38.28H314.763V48.28ZM329.164 48.28L339.014 50.0038L343.046 26.9638L333.195 25.24L323.345 23.5162L319.313 46.5562L329.164 48.28ZM333.195 25.24V15.24H318.796V25.24V35.24H333.195V25.24ZM319.464 103L309.615 101.268L307.552 113H319.464V103ZM334.152 19.48V9.47999H325.757L324.303 17.748L334.152 19.48ZM380.232 19.48L390.081 21.212L392.144 9.47999H380.232V19.48ZM365.544 103V113H373.939L375.393 104.732L365.544 103ZM373.512 25.24L383.362 26.9638L385.414 15.24H373.512V25.24ZM338.952 25.24V15.24H330.573L329.106 23.4897L338.952 25.24ZM331.272 68.44L321.426 66.6897L319.337 78.44H331.272V68.44ZM351.432 68.44L361.285 70.1479L363.314 58.44H351.432V68.44ZM348.936 82.84V92.84H357.352L358.789 84.5479L348.936 82.84ZM343.176 82.84L333.33 81.0897L331.241 92.84H343.176V82.84ZM344.712 74.2L354.557 75.9503L356.646 64.2H344.712V74.2ZM330.312 74.2V64.2H321.91L320.461 72.4762L330.312 74.2ZM326.28 97.24L316.429 95.5162L314.378 107.24H326.28V97.24ZM360.84 97.24V107.24H369.237L370.689 98.9691L360.84 97.24ZM368.424 54.04L378.273 55.7691L380.332 44.04H368.424V54.04ZM348.264 54.04L338.411 52.3321L336.381 64.04H348.264V54.04ZM350.76 39.64V29.64H342.344L340.907 37.9321L350.76 39.64ZM356.52 39.64L366.384 41.284L368.324 29.64H356.52V39.64ZM355.08 48.28L345.216 46.636L343.275 58.28H355.08V48.28ZM369.48 48.28V58.28H377.882L379.33 50.0038L369.48 48.28ZM319.464 103L329.313 104.732L344.001 21.212L334.152 19.48L324.303 17.748L309.615 101.268L319.464 103ZM334.152 19.48V29.48H380.232V19.48V9.47999H334.152V19.48ZM380.232 19.48L370.383 17.748L355.695 101.268L365.544 103L375.393 104.732L390.081 21.212L380.232 19.48ZM365.544 103V93H319.464V103V113H365.544V103ZM373.512 25.24V15.24H338.952V25.24V35.24H373.512V25.24ZM338.952 25.24L329.106 23.4897L321.426 66.6897L331.272 68.44L341.117 70.1903L348.797 26.9903L338.952 25.24ZM331.272 68.44V78.44H351.432V68.44V58.44H331.272V68.44ZM351.432 68.44L341.579 66.7321L339.083 81.1321L348.936 82.84L358.789 84.5479L361.285 70.1479L351.432 68.44ZM348.936 82.84V72.84H343.176V82.84V92.84H348.936V82.84ZM343.176 82.84L353.021 84.5903L354.557 75.9503L344.712 74.2L334.866 72.4497L333.33 81.0897L343.176 82.84ZM344.712 74.2V64.2H330.312V74.2V84.2H344.712V74.2ZM330.312 74.2L320.461 72.4762L316.429 95.5162L326.28 97.24L336.13 98.9638L340.162 75.9238L330.312 74.2ZM326.28 97.24V107.24H360.84V97.24V87.24H326.28V97.24ZM360.84 97.24L370.689 98.9691L378.273 55.7691L368.424 54.04L358.574 52.3109L350.99 95.5109L360.84 97.24ZM368.424 54.04V44.04H348.264V54.04V64.04H368.424V54.04ZM348.264 54.04L358.117 55.7479L360.613 41.3479L350.76 39.64L340.907 37.9321L338.411 52.3321L348.264 54.04ZM350.76 39.64V49.64H356.52V39.64V29.64H350.76V39.64ZM356.52 39.64L346.656 37.996L345.216 46.636L355.08 48.28L364.944 49.924L366.384 41.284L356.52 39.64ZM355.08 48.28V58.28H369.48V48.28V38.28H355.08V48.28ZM369.48 48.28L379.33 50.0038L383.362 26.9638L373.512 25.24L363.661 23.5162L359.629 46.5562L369.48 48.28Z" fill="black" mask="url(#path-1-outside-1_12_1151)"/>
</g>
<g filter="url(#filter1_d_12_1151)">
<path d="M35.584 202.64L51.808 110.48H97.888L83.2 194H63.04L61.504 202.64H35.584ZM58.336 188.24H78.496L91.168 116.24H56.608L42.4 196.88H56.8L58.336 188.24ZM68.416 130.64H74.176L66.592 173.84H60.832L68.416 130.64ZM123.513 194H77.4325L92.1205 110.48H138.201L123.513 194ZM96.9205 116.24L94.3285 130.64H114.489L113.529 136.4H93.3685L84.2485 188.24H118.809L131.481 116.24H96.9205ZM101.145 173.84L105.177 150.8H110.937L106.905 173.84H101.145ZM132.433 110.48H178.513L163.825 194H117.745L132.433 110.48ZM165.169 153.68L171.793 116.24H137.233L124.561 188.24H138.961L141.457 173.84H147.313L144.817 188.24H159.121L164.113 159.44H143.953L145.009 153.68H165.169ZM153.361 139.28H147.601L149.041 130.64H154.801L153.361 139.28ZM204.138 194H158.057L172.746 110.48H218.826L204.138 194ZM177.546 116.24L174.954 130.64H195.114L194.154 136.4H173.994L164.874 188.24H199.434L212.106 116.24H177.546ZM181.77 173.84L185.802 150.8H191.562L187.53 173.84H181.77ZM260.674 101.84L244.45 194H198.37L213.058 110.48H233.218L234.754 101.84H260.674ZM238.018 116.24H217.858L205.186 188.24H239.746L253.954 107.6H239.554L238.018 116.24ZM227.842 173.84H222.082L229.666 130.64H235.426L227.842 173.84ZM254.907 101.84H280.827L264.603 194H238.682L254.907 101.84ZM256.155 127.76L245.499 188.24H259.899L270.555 127.76H256.155ZM259.707 107.6L257.115 122H271.515L274.107 107.6H259.707ZM258.839 194L273.527 110.48H319.607L304.919 194H258.839ZM312.887 116.24H278.327L270.647 159.44H290.807L288.311 173.84H282.551L284.087 165.2H269.687L265.655 188.24H300.215L307.799 145.04H287.639L290.135 130.64H295.895L294.455 139.28H308.855L312.887 116.24ZM313.839 110.48H359.919L345.231 194H299.151L313.839 110.48ZM340.527 188.24L343.023 173.84H322.863L323.919 168.08H344.079L353.199 116.24H318.639L305.967 188.24H340.527ZM336.207 130.64L332.175 153.68H326.415L330.447 130.64H336.207Z" fill="url(#paint1_linear_12_1151)"/>
</g>
<defs>
<filter id="filter0_d_12_1151" x="0.669922" y="0.839996" width="396.474" height="129.8" filterUnits="userSpaceOnUse" color-interpolation-filters="sRGB">
<feFlood flood-opacity="0" result="BackgroundImageFix"/>
<feColorMatrix in="SourceAlpha" type="matrix" values="0 0 0 0 0 0 0 0 0 0 0 0 0 0 0 0 0 0 127 0" result="hardAlpha"/>
<feOffset dx="1" dy="5"/>
<feGaussianBlur stdDeviation="2"/>
<feComposite in2="hardAlpha" operator="out"/>
<feColorMatrix type="matrix" values="0 0 0 0 0 0 0 0 0 0 0 0 0 0 0 0 0 0 0.5 0"/>
<feBlend mode="normal" in2="BackgroundImageFix" result="effect1_dropShadow_12_1151"/>
<feBlend mode="normal" in="SourceGraphic" in2="effect1_dropShadow_12_1151" result="shape"/>
</filter>
<filter id="filter1_d_12_1151" x="26.584" y="101.84" width="333.335" height="109.8" filterUnits="userSpaceOnUse" color-interpolation-filters="sRGB">
<feFlood flood-opacity="0" result="BackgroundImageFix"/>
<feColorMatrix in="SourceAlpha" type="matrix" values="0 0 0 0 0 0 0 0 0 0 0 0 0 0 0 0 0 0 127 0" result="hardAlpha"/>
<feOffset dx="-5" dy="5"/>
<feGaussianBlur stdDeviation="2"/>
<feComposite in2="hardAlpha" operator="out"/>
<feColorMatrix type="matrix" values="0 0 0 0 0 0 0 0 0 0 0 0 0 0 0 0 0 0 1 0"/>
<feBlend mode="normal" in2="BackgroundImageFix" result="effect1_dropShadow_12_1151"/>
<feBlend mode="normal" in="SourceGraphic" in2="effect1_dropShadow_12_1151" result="shape"/>
</filter>
<linearGradient id="paint0_linear_12_1151" x1="191.5" y1="30" x2="191.5" y2="121" gradientUnits="userSpaceOnUse">
<stop stop-color="#F2FF00"/>
<stop offset="1" stop-color="#919900"/>
</linearGradient>
<linearGradient id="paint1_linear_12_1151" x1="191.5" y1="121" x2="191.5" y2="212" gradientUnits="userSpaceOnUse">
<stop stop-color="#F2FF00"/>
<stop offset="1" stop-color="#919900"/>
</linearGradient>
</defs>
</svg>
