<svg width="398" height="212" viewBox="0 0 398 212" fill="none" xmlns="http://www.w3.org/2000/svg">
<g filter="url(#filter0_d_1_86)">
<path d="M77.888 19.48L61.664 111.64H15.584L31.808 19.48H77.888ZM22.4 105.88H56.96L71.168 25.24H36.608L25.952 85.72H46.112L45.056 91.48H24.896L22.4 105.88ZM48.416 39.64H54.176L48.608 71.32H42.848L48.416 39.64ZM103.513 103H57.432L72.121 19.48H118.201L103.513 103ZM76.921 25.24L74.329 39.64H94.489L93.529 45.4H73.369L64.249 97.24H98.809L111.481 25.24H76.921ZM81.145 82.84L85.177 59.8H90.937L86.905 82.84H81.145ZM158.513 19.48L143.825 103H97.745L112.433 19.48H158.513ZM117.233 25.24L104.561 97.24H118.961L129.041 39.64H134.801L124.721 97.24H139.121L151.793 25.24H117.233ZM138.057 103L152.746 19.48H198.826L184.138 103H138.057ZM192.106 25.24H157.546L149.866 68.44H170.026L167.53 82.84H161.77L163.306 74.2H148.906L144.874 97.24H179.434L187.018 54.04H166.858L169.354 39.64H175.114L173.674 48.28H188.074L192.106 25.24ZM194.594 10.84H220.514L218.978 19.48H239.138L224.45 103H178.37L194.594 10.84ZM202.082 82.84L209.666 39.64H229.826L232.418 25.24H212.258L213.794 16.6H199.394L185.186 97.24H219.746L228.866 45.304H214.466L207.842 82.84H202.082ZM233.371 19.48H279.451L264.763 103H218.682L233.371 19.48ZM260.059 97.24L262.555 82.84H242.395L243.451 77.08H263.611L272.731 25.24H238.171L225.499 97.24H260.059ZM255.739 39.64L251.707 62.68H245.947L249.979 39.64H255.739ZM273.683 19.48H319.763L305.075 103H258.995L273.683 19.48ZM306.419 62.68L313.043 25.24H278.483L265.811 97.24H280.211L282.707 82.84H288.563L286.067 97.24H300.371L305.363 68.44H285.203L286.259 62.68H306.419ZM294.611 48.28H288.851L290.291 39.64H296.051L294.611 48.28ZM333.868 54.04H307.948L313.996 19.48H339.916L333.868 54.04ZM318.796 25.24L314.764 48.28H329.164L333.196 25.24H318.796ZM319.464 103L334.152 19.48H380.232L365.544 103H319.464ZM373.512 25.24H338.952L331.272 68.44H351.432L348.936 82.84H343.176L344.712 74.2H330.312L326.28 97.24H360.84L368.424 54.04H348.264L350.76 39.64H356.52L355.08 48.28H369.48L373.512 25.24Z" fill="url(#paint0_linear_1_86)"/>
<mask id="mask0_1_86" style="mask-type:luminance" maskUnits="userSpaceOnUse" x="3" y="0" width="390" height="122">
<path d="M393 0H3V122H393V0Z" fill="white"/>
<path d="M77.888 19.48L61.664 111.64H15.584L31.808 19.48H77.888ZM22.4 105.88H56.96L71.168 25.24H36.608L25.952 85.72H46.112L45.056 91.48H24.896L22.4 105.88ZM48.416 39.64H54.176L48.608 71.32H42.848L48.416 39.64ZM103.513 103H57.432L72.121 19.48H118.201L103.513 103ZM76.921 25.24L74.329 39.64H94.489L93.529 45.4H73.369L64.249 97.24H98.809L111.481 25.24H76.921ZM81.145 82.84L85.177 59.8H90.937L86.905 82.84H81.145ZM158.513 19.48L143.825 103H97.745L112.433 19.48H158.513ZM117.233 25.24L104.561 97.24H118.961L129.041 39.64H134.801L124.721 97.24H139.121L151.793 25.24H117.233ZM138.057 103L152.746 19.48H198.826L184.138 103H138.057ZM192.106 25.24H157.546L149.866 68.44H170.026L167.53 82.84H161.77L163.306 74.2H148.906L144.874 97.24H179.434L187.018 54.04H166.858L169.354 39.64H175.114L173.674 48.28H188.074L192.106 25.24ZM194.594 10.84H220.514L218.978 19.48H239.138L224.45 103H178.37L194.594 10.84ZM202.082 82.84L209.666 39.64H229.826L232.418 25.24H212.258L213.794 16.6H199.394L185.186 97.24H219.746L228.866 45.304H214.466L207.842 82.84H202.082ZM233.371 19.48H279.451L264.763 103H218.682L233.371 19.48ZM260.059 97.24L262.555 82.84H242.395L243.451 77.08H263.611L272.731 25.24H238.171L225.499 97.24H260.059ZM255.739 39.64L251.707 62.68H245.947L249.979 39.64H255.739ZM273.683 19.48H319.763L305.075 103H258.995L273.683 19.48ZM306.419 62.68L313.043 25.24H278.483L265.811 97.24H280.211L282.707 82.84H288.563L286.067 97.24H300.371L305.363 68.44H285.203L286.259 62.68H306.419ZM294.611 48.28H288.851L290.291 39.64H296.051L294.611 48.28ZM333.868 54.04H307.948L313.996 19.48H339.916L333.868 54.04ZM318.796 25.24L314.764 48.28H329.164L333.196 25.24H318.796ZM319.464 103L334.152 19.48H380.232L365.544 103H319.464ZM373.512 25.24H338.952L331.272 68.44H351.432L348.936 82.84H343.176L344.712 74.2H330.312L326.28 97.24H360.84L368.424 54.04H348.264L350.76 39.64H356.52L355.08 48.28H369.48L373.512 25.24Z" fill="black"/>
</mask>
<g mask="url(#mask0_1_86)">
<path d="M77.888 19.48L87.737 21.2138L89.802 9.48H77.888V19.48ZM61.664 111.64V121.64H70.057L71.513 113.374L61.664 111.64ZM15.584 111.64L5.73499 109.906L3.67001 121.64H15.584V111.64ZM31.808 19.48V9.48H23.415L21.959 17.7462L31.808 19.48ZM22.4 105.88L12.547 104.172L10.518 115.88H22.4V105.88ZM56.96 105.88V115.88H65.352L66.808 107.615L56.96 105.88ZM71.168 25.24L81.016 26.9752L83.084 15.24H71.168V25.24ZM36.608 25.24V15.24H28.216L26.76 23.5048L36.608 25.24ZM25.952 85.72L16.104 83.9848L14.036 95.72H25.952V85.72ZM46.112 85.72L55.948 87.5233L58.112 75.72H46.112V85.72ZM45.056 91.48V101.48H53.389L54.892 93.283L45.056 91.48ZM24.896 91.48V81.48H16.48L15.043 89.7721L24.896 91.48ZM48.416 39.64V29.64H40.02L38.567 37.909L48.416 39.64ZM54.176 39.64L64.025 41.371L66.087 29.64H54.176V39.64ZM48.608 71.32V81.32H57.004L58.457 73.051L48.608 71.32ZM42.848 71.32L32.999 69.589L30.937 81.32H42.848V71.32ZM77.888 19.48L68.039 17.7462L51.815 109.906L61.664 111.64L71.513 113.374L87.737 21.2138L77.888 19.48ZM61.664 111.64V101.64H15.584V111.64V121.64H61.664V111.64ZM15.584 111.64L25.433 113.374L41.657 21.2137L31.808 19.48L21.959 17.7462L5.73499 109.906L15.584 111.64ZM31.808 19.48V29.48H77.888V19.48V9.48H31.808V19.48ZM22.4 105.88V115.88H56.96V105.88V95.88H22.4V105.88ZM56.96 105.88L66.808 107.615L81.016 26.9752L71.168 25.24L61.32 23.5048L47.112 104.145L56.96 105.88ZM71.168 25.24V15.24H36.608V25.24V35.24H71.168V25.24ZM36.608 25.24L26.76 23.5048L16.104 83.9848L25.952 85.72L35.8 87.4552L46.456 26.9752L36.608 25.24ZM25.952 85.72V95.72H46.112V85.72V75.72H25.952V85.72ZM46.112 85.72L36.276 83.9167L35.22 89.6767L45.056 91.48L54.892 93.283L55.948 87.5233L46.112 85.72ZM45.056 91.48V81.48H24.896V91.48V101.48H45.056V91.48ZM24.896 91.48L15.043 89.7721L12.547 104.172L22.4 105.88L32.253 107.588L34.749 93.188L24.896 91.48ZM48.416 39.64V49.64H54.176V39.64V29.64H48.416V39.64ZM54.176 39.64L44.327 37.909L38.759 69.589L48.608 71.32L58.457 73.051L64.025 41.371L54.176 39.64ZM48.608 71.32V61.32H42.848V71.32V81.32H48.608V71.32ZM42.848 71.32L52.697 73.051L58.265 41.371L48.416 39.64L38.567 37.909L32.999 69.589L42.848 71.32ZM103.513 103V113H111.907L113.361 104.732L103.513 103ZM57.432 103L47.584 101.268L45.52 113H57.432V103ZM72.12 19.48V9.48H63.726L62.272 17.748L72.12 19.48ZM118.201 19.48L128.049 21.212L130.113 9.48H118.201V19.48ZM76.921 25.24V15.24H68.56L67.079 23.4685L76.921 25.24ZM74.329 39.64L64.487 37.8685L62.368 49.64H74.329V39.64ZM94.489 39.64L104.352 41.284L106.293 29.64H94.489V39.64ZM93.529 45.4V55.4H102L103.392 47.044L93.529 45.4ZM73.368 45.4V35.4H64.974L63.52 43.6673L73.368 45.4ZM64.249 97.24L54.4 95.507L52.336 107.24H64.249V97.24ZM98.809 97.24V107.24H107.202L108.657 98.973L98.809 97.24ZM111.481 25.24L121.329 26.9734L123.394 15.24H111.481V25.24ZM81.145 82.84L71.294 81.1162L69.243 92.84H81.145V82.84ZM85.176 59.8V49.8H76.775L75.326 58.0762L85.176 59.8ZM90.937 59.8L100.787 61.5238L102.838 49.8H90.937V59.8ZM86.905 82.84V92.84H95.306L96.755 84.5638L86.905 82.84ZM103.513 103V93H57.432V103V113H103.513V103ZM57.432 103L67.281 104.732L81.969 21.212L72.12 19.48L62.272 17.748L47.584 101.268L57.432 103ZM72.12 19.48V29.48H118.201V19.48V9.48H72.12V19.48ZM118.201 19.48L108.352 17.748L93.664 101.268L103.513 103L113.361 104.732L128.049 21.212L118.201 19.48ZM76.921 25.24L67.079 23.4685L64.487 37.8685L74.329 39.64L84.17 41.4115L86.762 27.0115L76.921 25.24ZM74.329 39.64V49.64H94.489V39.64V29.64H74.329V39.64ZM94.489 39.64L84.625 37.996L83.665 43.756L93.529 45.4L103.392 47.044L104.352 41.284L94.489 39.64ZM93.529 45.4V35.4H73.368V45.4V55.4H93.529V45.4ZM73.368 45.4L63.52 43.6673L54.4 95.507L64.249 97.24L74.097 98.973L83.217 47.1326L73.368 45.4ZM64.249 97.24V107.24H98.809V97.24V87.24H64.249V97.24ZM98.809 97.24L108.657 98.973L121.329 26.9734L111.481 25.24L101.632 23.5066L88.96 95.507L98.809 97.24ZM111.481 25.24V15.24H76.921V25.24V35.24H111.481V25.24ZM81.145 82.84L90.995 84.5638L95.027 61.5238L85.176 59.8L75.326 58.0762L71.294 81.1162L81.145 82.84ZM85.176 59.8V69.8H90.937V59.8V49.8H85.176V59.8ZM90.937 59.8L81.086 58.0762L77.054 81.1162L86.905 82.84L96.755 84.5638L100.787 61.5238L90.937 59.8ZM86.905 82.84V72.84H81.145V82.84V92.84H86.905V82.84ZM158.513 19.48L168.362 21.212L170.425 9.48H158.513V19.48ZM143.825 103V113H152.22L153.674 104.732L143.825 103ZM97.745 103L87.896 101.268L85.833 113H97.745V103ZM112.433 19.48V9.48H104.038L102.584 17.748L112.433 19.48ZM117.233 25.24V15.24H108.839L107.384 23.5066L117.233 25.24ZM104.561 97.24L94.712 95.507L92.647 107.24H104.561V97.24ZM118.961 97.24V107.24H127.363L128.811 98.964L118.961 97.24ZM129.041 39.64V29.64H120.639L119.191 37.9162L129.041 39.64ZM134.801 39.64L144.651 41.3638L146.703 29.64H134.801V39.64ZM124.721 97.24L114.871 95.516L112.819 107.24H124.721V97.24ZM139.121 97.24V107.24H147.515L148.97 98.973L139.121 97.24ZM151.793 25.24L161.642 26.9734L163.707 15.24H151.793V25.24ZM158.513 19.48L148.664 17.748L133.976 101.268L143.825 103L153.674 104.732L168.362 21.212L158.513 19.48ZM143.825 103V93H97.745V103V113H143.825V103ZM97.745 103L107.594 104.732L122.282 21.212L112.433 19.48L102.584 17.748L87.896 101.268L97.745 103ZM112.433 19.48V29.48H158.513V19.48V9.48H112.433V19.48ZM117.233 25.24L107.384 23.5066L94.712 95.507L104.561 97.24L114.41 98.973L127.082 26.9734L117.233 25.24ZM104.561 97.24V107.24H118.961V97.24V87.24H104.561V97.24ZM118.961 97.24L128.811 98.964L138.891 41.3638L129.041 39.64L119.191 37.9162L109.111 95.516L118.961 97.24ZM129.041 39.64V49.64H134.801V39.64V29.64H129.041V39.64ZM134.801 39.64L124.951 37.9162L114.871 95.516L124.721 97.24L134.571 98.964L144.651 41.3638L134.801 39.64ZM124.721 97.24V107.24H139.121V97.24V87.24H124.721V97.24ZM139.121 97.24L148.97 98.973L161.642 26.9734L151.793 25.24L141.944 23.5066L129.272 95.507L139.121 97.24ZM151.793 25.24V15.24H117.233V25.24V35.24H151.793V25.24ZM138.058 103L128.209 101.268L126.145 113H138.058V103ZM152.745 19.48V9.48H144.351L142.897 17.748L152.745 19.48ZM198.826 19.48L208.674 21.212L210.738 9.48H198.826V19.48ZM184.137 103V113H192.532L193.986 104.732L184.137 103ZM192.105 25.24L201.956 26.9638L204.007 15.24H192.105V25.24ZM157.546 25.24V15.24H149.166L147.7 23.4897L157.546 25.24ZM149.865 68.44L140.02 66.6897L137.931 78.44H149.865V68.44ZM170.025 68.44L179.879 70.1479L181.908 58.44H170.025V68.44ZM167.529 82.84V92.84H175.945L177.383 84.5479L167.529 82.84ZM161.77 82.84L151.924 81.0897L149.835 92.84H161.77V82.84ZM163.305 74.2L173.151 75.9503L175.24 64.2H163.305V74.2ZM148.906 74.2V64.2H140.504L139.055 72.4762L148.906 74.2ZM144.873 97.24L135.023 95.516L132.972 107.24H144.873V97.24ZM179.434 97.24V107.24H187.831L189.283 98.969L179.434 97.24ZM187.018 54.04L196.867 55.7691L198.926 44.04H187.018V54.04ZM166.857 54.04L157.004 52.3321L154.975 64.04H166.857V54.04ZM169.354 39.64V29.64H160.938L159.5 37.9321L169.354 39.64ZM175.113 39.64L184.977 41.284L186.918 29.64H175.113V39.64ZM173.674 48.28L163.81 46.636L161.869 58.28H173.674V48.28ZM188.074 48.28V58.28H196.475L197.924 50.0038L188.074 48.28ZM138.058 103L147.906 104.732L162.594 21.212L152.745 19.48L142.897 17.748L128.209 101.268L138.058 103ZM152.745 19.48V29.48H198.826V19.48V9.48H152.745V19.48ZM198.826 19.48L188.977 17.748L174.289 101.268L184.137 103L193.986 104.732L208.674 21.212L198.826 19.48ZM184.137 103V93H138.058V103V113H184.137V103ZM192.105 25.24V15.24H157.546V25.24V35.24H192.105V25.24ZM157.546 25.24L147.7 23.4897L140.02 66.6897L149.865 68.44L159.711 70.1903L167.391 26.9903L157.546 25.24ZM149.865 68.44V78.44H170.025V68.44V58.44H149.865V68.44ZM170.025 68.44L160.172 66.7321L157.676 81.1321L167.529 82.84L177.383 84.5479L179.879 70.1479L170.025 68.44ZM167.529 82.84V72.84H161.77V82.84V92.84H167.529V82.84ZM161.77 82.84L171.615 84.5903L173.151 75.9503L163.305 74.2L153.46 72.4497L151.924 81.0897L161.77 82.84ZM163.305 74.2V64.2H148.906V74.2V84.2H163.305V74.2ZM148.906 74.2L139.055 72.4762L135.023 95.516L144.873 97.24L154.724 98.964L158.756 75.9238L148.906 74.2ZM144.873 97.24V107.24H179.434V97.24V87.24H144.873V97.24ZM179.434 97.24L189.283 98.969L196.867 55.7691L187.018 54.04L177.168 52.3109L169.584 95.511L179.434 97.24ZM187.018 54.04V44.04H166.857V54.04V64.04H187.018V54.04ZM166.857 54.04L176.711 55.7479L179.207 41.3479L169.354 39.64L159.5 37.9321L157.004 52.3321L166.857 54.04ZM169.354 39.64V49.64H175.113V39.64V29.64H169.354V39.64ZM175.113 39.64L165.25 37.996L163.81 46.636L173.674 48.28L183.537 49.924L184.977 41.284L175.113 39.64ZM173.674 48.28V58.28H188.074V48.28V38.28H173.674V48.28ZM188.074 48.28L197.924 50.0038L201.956 26.9638L192.105 25.24L182.255 23.5162L178.223 46.5562L188.074 48.28ZM194.594 10.84V0.839996H186.201L184.745 9.1062L194.594 10.84ZM220.514 10.84L230.36 12.5903L232.449 0.839996H220.514V10.84ZM218.978 19.48L209.132 17.7297L207.043 29.48H218.978V19.48ZM239.138 19.48L248.987 21.212L251.05 9.48H239.138V19.48ZM224.45 103V113H232.845L234.299 104.732L224.45 103ZM178.37 103L168.521 101.266L166.456 113H178.37V103ZM202.082 82.84L192.233 81.1109L190.174 92.84H202.082V82.84ZM209.666 39.64V29.64H201.269L199.817 37.9109L209.666 39.64ZM229.826 39.64V49.64H238.187L239.668 41.4115L229.826 39.64ZM232.418 25.24L242.26 27.0115L244.379 15.24H232.418V25.24ZM212.258 25.24L202.412 23.4897L200.323 35.24H212.258V25.24ZM213.794 16.6L223.64 18.3503L225.729 6.6H213.794V16.6ZM199.394 16.6V6.6H191.002L189.546 14.8648L199.394 16.6ZM185.186 97.24L175.338 95.505L173.27 107.24H185.186V97.24ZM219.746 97.24V107.24H228.143L229.595 98.97L219.746 97.24ZM228.866 45.304L238.715 47.0335L240.775 35.304H228.866V45.304ZM214.466 45.304V35.304H206.076L204.618 43.5661L214.466 45.304ZM207.842 82.84V92.84H216.232L217.69 84.5779L207.842 82.84ZM194.594 10.84V20.84H220.514V10.84V0.839996H194.594V10.84ZM220.514 10.84L210.668 9.0897L209.132 17.7297L218.978 19.48L228.824 21.2303L230.36 12.5903L220.514 10.84ZM218.978 19.48V29.48H239.138V19.48V9.48H218.978V19.48ZM239.138 19.48L229.289 17.748L214.601 101.268L224.45 103L234.299 104.732L248.987 21.212L239.138 19.48ZM224.45 103V93H178.37V103V113H224.45V103ZM178.37 103L188.219 104.734L204.443 12.5738L194.594 10.84L184.745 9.1062L168.521 101.266L178.37 103ZM202.082 82.84L211.931 84.5691L219.515 41.3691L209.666 39.64L199.817 37.9109L192.233 81.1109L202.082 82.84ZM209.666 39.64V49.64H229.826V39.64V29.64H209.666V39.64ZM229.826 39.64L239.668 41.4115L242.26 27.0115L232.418 25.24L222.576 23.4685L219.984 37.8685L229.826 39.64ZM232.418 25.24V15.24H212.258V25.24V35.24H232.418V25.24ZM212.258 25.24L222.104 26.9903L223.64 18.3503L213.794 16.6L203.948 14.8497L202.412 23.4897L212.258 25.24ZM213.794 16.6V6.6H199.394V16.6V26.6H213.794V16.6ZM199.394 16.6L189.546 14.8648L175.338 95.505L185.186 97.24L195.034 98.975L209.242 18.3352L199.394 16.6ZM185.186 97.24V107.24H219.746V97.24V87.24H185.186V97.24ZM219.746 97.24L229.595 98.97L238.715 47.0335L228.866 45.304L219.017 43.5745L209.897 95.51L219.746 97.24ZM228.866 45.304V35.304H214.466V45.304V55.304H228.866V45.304ZM214.466 45.304L204.618 43.5661L197.994 81.1021L207.842 82.84L217.69 84.5779L224.314 47.0419L214.466 45.304ZM207.842 82.84V72.84H202.082V82.84V92.84H207.842V82.84ZM233.37 19.48V9.48H224.976L223.522 17.748L233.37 19.48ZM279.451 19.48L289.299 21.212L291.363 9.48H279.451V19.48ZM264.762 103V113H273.157L274.611 104.732L264.762 103ZM218.682 103L208.834 101.268L206.77 113H218.682V103ZM260.059 97.24V107.24H268.474L269.912 98.948L260.059 97.24ZM262.555 82.84L272.408 84.5479L274.437 72.84H262.555V82.84ZM242.395 82.84L232.558 81.0367L230.395 92.84H242.395V82.84ZM243.451 77.08V67.08H235.117L233.614 75.2767L243.451 77.08ZM263.611 77.08V87.08H272.005L273.459 78.8126L263.611 77.08ZM272.73 25.24L282.579 26.9726L284.643 15.24H272.73V25.24ZM238.171 25.24V15.24H229.777L228.322 23.5066L238.171 25.24ZM225.499 97.24L215.65 95.507L213.585 107.24H225.499V97.24ZM255.738 39.64L265.589 41.3638L267.64 29.64H255.738V39.64ZM251.706 62.68V72.68H260.108L261.557 64.4038L251.706 62.68ZM245.947 62.68L236.096 60.9562L234.045 72.68H245.947V62.68ZM249.979 39.64V29.64H241.577L240.128 37.9162L249.979 39.64ZM233.37 19.48V29.48H279.451V19.48V9.48H233.37V19.48ZM279.451 19.48L269.602 17.748L254.914 101.268L264.762 103L274.611 104.732L289.299 21.212L279.451 19.48ZM264.762 103V93H218.682V103V113H264.762V103ZM218.682 103L228.531 104.732L243.219 21.212L233.37 19.48L223.522 17.748L208.834 101.268L218.682 103ZM260.059 97.24L269.912 98.948L272.408 84.5479L262.555 82.84L252.701 81.1321L250.205 95.532L260.059 97.24ZM262.555 82.84V72.84H242.395V82.84V92.84H262.555V82.84ZM242.395 82.84L252.231 84.6433L253.287 78.8833L243.451 77.08L233.614 75.2767L232.558 81.0367L242.395 82.84ZM243.451 77.08V87.08H263.611V77.08V67.08H243.451V77.08ZM263.611 77.08L273.459 78.8126L282.579 26.9726L272.73 25.24L262.882 23.5073L253.762 75.3473L263.611 77.08ZM272.73 25.24V15.24H238.171V25.24V35.24H272.73V25.24ZM238.171 25.24L228.322 23.5066L215.65 95.507L225.499 97.24L235.347 98.973L248.019 26.9734L238.171 25.24ZM225.499 97.24V107.24H260.059V97.24V87.24H225.499V97.24ZM255.738 39.64L245.888 37.9162L241.856 60.9562L251.706 62.68L261.557 64.4038L265.589 41.3638L255.738 39.64ZM251.706 62.68V52.68H245.947V62.68V72.68H251.706V62.68ZM245.947 62.68L255.797 64.4038L259.829 41.3638L249.979 39.64L240.128 37.9162L236.096 60.9562L245.947 62.68ZM249.979 39.64V49.64H255.738V39.64V29.64H249.979V39.64ZM273.683 19.48V9.48H265.288L263.834 17.748L273.683 19.48ZM319.763 19.48L329.612 21.212L331.675 9.48H319.763V19.48ZM305.075 103V113H313.47L314.924 104.732L305.075 103ZM258.995 103L249.146 101.268L247.083 113H258.995V103ZM306.419 62.68V72.68H314.805L316.266 64.4222L306.419 62.68ZM313.043 25.24L322.89 26.9822L324.968 15.24H313.043V25.24ZM278.483 25.24V15.24H270.089L268.634 23.5066L278.483 25.24ZM265.811 97.24L255.962 95.507L253.897 107.24H265.811V97.24ZM280.211 97.24V107.24H288.627L290.064 98.948L280.211 97.24ZM282.707 82.84V72.84H274.291L272.854 81.1321L282.707 82.84ZM288.563 82.84L298.416 84.5479L300.445 72.84H288.563V82.84ZM286.067 97.24L276.214 95.532L274.185 107.24H286.067V97.24ZM300.371 97.24V107.24H308.787L310.224 98.948L300.371 97.24ZM305.363 68.44L315.216 70.1479L317.245 58.44H305.363V68.44ZM285.203 68.44L275.367 66.6367L273.203 78.44H285.203V68.44ZM286.259 62.68V52.68H277.926L276.423 60.8767L286.259 62.68ZM294.611 48.28V58.28H303.082L304.475 49.924L294.611 48.28ZM288.851 48.28L278.987 46.636L277.046 58.28H288.851V48.28ZM290.291 39.64V29.64H281.82L280.427 37.996L290.291 39.64ZM296.051 39.64L305.915 41.284L307.856 29.64H296.051V39.64ZM273.683 19.48V29.48H319.763V19.48V9.48H273.683V19.48ZM319.763 19.48L309.914 17.748L295.226 101.268L305.075 103L314.924 104.732L329.612 21.212L319.763 19.48ZM305.075 103V93H258.995V103V113H305.075V103ZM258.995 103L268.844 104.732L283.532 21.212L273.683 19.48L263.834 17.748L249.146 101.268L258.995 103ZM306.419 62.68L316.266 64.4222L322.89 26.9822L313.043 25.24L303.196 23.4978L296.572 60.9378L306.419 62.68ZM313.043 25.24V15.24H278.483V25.24V35.24H313.043V25.24ZM278.483 25.24L268.634 23.5066L255.962 95.507L265.811 97.24L275.66 98.973L288.332 26.9734L278.483 25.24ZM265.811 97.24V107.24H280.211V97.24V87.24H265.811V97.24ZM280.211 97.24L290.064 98.948L292.56 84.5479L282.707 82.84L272.854 81.1321L270.358 95.532L280.211 97.24ZM282.707 82.84V92.84H288.563V82.84V72.84H282.707V82.84ZM288.563 82.84L278.71 81.1321L276.214 95.532L286.067 97.24L295.92 98.948L298.416 84.5479L288.563 82.84ZM286.067 97.24V107.24H300.371V97.24V87.24H286.067V97.24ZM300.371 97.24L310.224 98.948L315.216 70.1479L305.363 68.44L295.51 66.7321L290.518 95.532L300.371 97.24ZM305.363 68.44V58.44H285.203V68.44V78.44H305.363V68.44ZM285.203 68.44L295.039 70.2433L296.095 64.4833L286.259 62.68L276.423 60.8767L275.367 66.6367L285.203 68.44ZM286.259 62.68V72.68H306.419V62.68V52.68H286.259V62.68ZM294.611 48.28V38.28H288.851V48.28V58.28H294.611V48.28ZM288.851 48.28L298.715 49.924L300.155 41.284L290.291 39.64L280.427 37.996L278.987 46.636L288.851 48.28ZM290.291 39.64V49.64H296.051V39.64V29.64H290.291V39.64ZM296.051 39.64L286.187 37.996L284.747 46.636L294.611 48.28L304.475 49.924L305.915 41.284L296.051 39.64ZM333.867 54.04V64.04H342.269L343.718 55.7638L333.867 54.04ZM307.948 54.04L298.097 52.3162L296.046 64.04H307.948V54.04ZM313.996 19.48V9.48H305.594L304.145 17.7562L313.996 19.48ZM339.915 19.48L349.766 21.2038L351.817 9.48H339.915V19.48ZM318.796 25.24V15.24H310.394L308.945 23.5162L318.796 25.24ZM314.763 48.28L304.913 46.5562L302.862 58.28H314.763V48.28ZM329.164 48.28V58.28H337.565L339.014 50.0038L329.164 48.28ZM333.195 25.24L343.046 26.9638L345.097 15.24H333.195V25.24ZM333.867 54.04V44.04H307.948V54.04V64.04H333.867V54.04ZM307.948 54.04L317.798 55.7638L323.846 21.2038L313.996 19.48L304.145 17.7562L298.097 52.3162L307.948 54.04ZM313.996 19.48V29.48H339.915V19.48V9.48H313.996V19.48ZM339.915 19.48L330.065 17.7562L324.017 52.3162L333.867 54.04L343.718 55.7638L349.766 21.2038L339.915 19.48ZM318.796 25.24L308.945 23.5162L304.913 46.5562L314.763 48.28L324.614 50.0038L328.646 26.9638L318.796 25.24ZM314.763 48.28V58.28H329.164V48.28V38.28H314.763V48.28ZM329.164 48.28L339.014 50.0038L343.046 26.9638L333.195 25.24L323.345 23.5162L319.313 46.5562L329.164 48.28ZM333.195 25.24V15.24H318.796V25.24V35.24H333.195V25.24ZM319.464 103L309.615 101.268L307.552 113H319.464V103ZM334.152 19.48V9.48H325.757L324.303 17.748L334.152 19.48ZM380.232 19.48L390.081 21.212L392.144 9.48H380.232V19.48ZM365.544 103V113H373.939L375.393 104.732L365.544 103ZM373.512 25.24L383.362 26.9638L385.414 15.24H373.512V25.24ZM338.952 25.24V15.24H330.573L329.106 23.4897L338.952 25.24ZM331.272 68.44L321.426 66.6897L319.337 78.44H331.272V68.44ZM351.432 68.44L361.285 70.1479L363.314 58.44H351.432V68.44ZM348.936 82.84V92.84H357.352L358.789 84.5479L348.936 82.84ZM343.176 82.84L333.33 81.0897L331.241 92.84H343.176V82.84ZM344.712 74.2L354.557 75.9503L356.646 64.2H344.712V74.2ZM330.312 74.2V64.2H321.91L320.461 72.4762L330.312 74.2ZM326.28 97.24L316.429 95.516L314.378 107.24H326.28V97.24ZM360.84 97.24V107.24H369.237L370.689 98.969L360.84 97.24ZM368.424 54.04L378.273 55.7691L380.332 44.04H368.424V54.04ZM348.264 54.04L338.411 52.3321L336.381 64.04H348.264V54.04ZM350.76 39.64V29.64H342.344L340.907 37.9321L350.76 39.64ZM356.52 39.64L366.384 41.284L368.324 29.64H356.52V39.64ZM355.08 48.28L345.216 46.636L343.275 58.28H355.08V48.28ZM369.48 48.28V58.28H377.882L379.33 50.0038L369.48 48.28ZM319.464 103L329.313 104.732L344.001 21.212L334.152 19.48L324.303 17.748L309.615 101.268L319.464 103ZM334.152 19.48V29.48H380.232V19.48V9.48H334.152V19.48ZM380.232 19.48L370.383 17.748L355.695 101.268L365.544 103L375.393 104.732L390.081 21.212L380.232 19.48ZM365.544 103V93H319.464V103V113H365.544V103ZM373.512 25.24V15.24H338.952V25.24V35.24H373.512V25.24ZM338.952 25.24L329.106 23.4897L321.426 66.6897L331.272 68.44L341.117 70.1903L348.797 26.9903L338.952 25.24ZM331.272 68.44V78.44H351.432V68.44V58.44H331.272V68.44ZM351.432 68.44L341.579 66.7321L339.083 81.1321L348.936 82.84L358.789 84.5479L361.285 70.1479L351.432 68.44ZM348.936 82.84V72.84H343.176V82.84V92.84H348.936V82.84ZM343.176 82.84L353.021 84.5903L354.557 75.9503L344.712 74.2L334.866 72.4497L333.33 81.0897L343.176 82.84ZM344.712 74.2V64.2H330.312V74.2V84.2H344.712V74.2ZM330.312 74.2L320.461 72.4762L316.429 95.516L326.28 97.24L336.13 98.964L340.162 75.9238L330.312 74.2ZM326.28 97.24V107.24H360.84V97.24V87.24H326.28V97.24ZM360.84 97.24L370.689 98.969L378.273 55.7691L368.424 54.04L358.574 52.3109L350.99 95.511L360.84 97.24ZM368.424 54.04V44.04H348.264V54.04V64.04H368.424V54.04ZM348.264 54.04L358.117 55.7479L360.613 41.3479L350.76 39.64L340.907 37.9321L338.411 52.3321L348.264 54.04ZM350.76 39.64V49.64H356.52V39.64V29.64H350.76V39.64ZM356.52 39.64L346.656 37.996L345.216 46.636L355.08 48.28L364.944 49.924L366.384 41.284L356.52 39.64ZM355.08 48.28V58.28H369.48V48.28V38.28H355.08V48.28ZM369.48 48.28L379.33 50.0038L383.362 26.9638L373.512 25.24L363.661 23.5162L359.629 46.5562L369.48 48.28Z" fill="black"/>
</g>
</g>
<g filter="url(#filter1_d_1_86)">
<path d="M35.584 202.64L51.808 110.48H97.888L83.2 194H63.0399L61.504 202.64H35.584ZM58.336 188.24H78.4959L91.168 116.24H56.6079L42.4 196.88H56.8L58.336 188.24ZM68.416 130.64H74.176L66.5919 173.84H60.8319L68.416 130.64ZM123.513 194H77.432L92.1209 110.48H138.201L123.513 194ZM96.921 116.24L94.3289 130.64H114.489L113.529 136.4H93.369L84.249 188.24H118.809L131.481 116.24H96.921ZM101.145 173.84L105.177 150.8H110.937L106.905 173.84H101.145ZM132.433 110.48H178.513L163.825 194H117.745L132.433 110.48ZM165.169 153.68L171.793 116.24H137.233L124.561 188.24H138.961L141.457 173.84H147.313L144.817 188.24H159.121L164.113 159.44H143.953L145.009 153.68H165.169ZM153.361 139.28H147.601L149.041 130.64H154.801L153.361 139.28ZM204.138 194H158.057L172.746 110.48H218.826L204.138 194ZM177.546 116.24L174.954 130.64H195.114L194.154 136.4H173.994L164.874 188.24H199.434L212.106 116.24H177.546ZM181.77 173.84L185.802 150.8H191.562L187.53 173.84H181.77ZM260.674 101.84L244.45 194H198.37L213.058 110.48H233.218L234.754 101.84H260.674ZM238.018 116.24H217.858L205.186 188.24H239.746L253.954 107.6H239.554L238.018 116.24ZM227.842 173.84H222.082L229.666 130.64H235.426L227.842 173.84ZM254.907 101.84H280.827L264.603 194H238.682L254.907 101.84ZM256.155 127.76L245.499 188.24H259.899L270.555 127.76H256.155ZM259.707 107.6L257.115 122H271.515L274.107 107.6H259.707ZM258.839 194L273.527 110.48H319.607L304.919 194H258.839ZM312.887 116.24H278.327L270.647 159.44H290.807L288.311 173.84H282.551L284.087 165.2H269.687L265.655 188.24H300.215L307.799 145.04H287.639L290.135 130.64H295.895L294.455 139.28H308.855L312.887 116.24ZM313.839 110.48H359.919L345.231 194H299.151L313.839 110.48ZM340.527 188.24L343.023 173.84H322.863L323.919 168.08H344.079L353.199 116.24H318.639L305.967 188.24H340.527ZM336.207 130.64L332.175 153.68H326.415L330.447 130.64H336.207Z" fill="url(#paint1_linear_1_86)"/>
</g>
<defs>
<filter id="filter0_d_1_86" x="0.670013" y="0.839996" width="396.474" height="129.8" filterUnits="userSpaceOnUse" color-interpolation-filters="sRGB">
<feFlood flood-opacity="0" result="BackgroundImageFix"/>
<feColorMatrix in="SourceAlpha" type="matrix" values="0 0 0 0 0 0 0 0 0 0 0 0 0 0 0 0 0 0 127 0" result="hardAlpha"/>
<feOffset dx="1" dy="5"/>
<feGaussianBlur stdDeviation="2"/>
<feComposite in2="hardAlpha" operator="out"/>
<feColorMatrix type="matrix" values="0 0 0 0 0 0 0 0 0 0 0 0 0 0 0 0 0 0 0.5 0"/>
<feBlend mode="normal" in2="BackgroundImageFix" result="effect1_dropShadow_1_86"/>
<feBlend mode="normal" in="SourceGraphic" in2="effect1_dropShadow_1_86" result="shape"/>
</filter>
<filter id="filter1_d_1_86" x="32.584" y="101.84" width="332.335" height="109.8" filterUnits="userSpaceOnUse" color-interpolation-filters="sRGB">
<feFlood flood-opacity="0" result="BackgroundImageFix"/>
<feColorMatrix in="SourceAlpha" type="matrix" values="0 0 0 0 0 0 0 0 0 0 0 0 0 0 0 0 0 0 127 0" result="hardAlpha"/>
<feOffset dx="1" dy="5"/>
<feGaussianBlur stdDeviation="2"/>
<feComposite in2="hardAlpha" operator="out"/>
<feColorMatrix type="matrix" values="0 0 0 0 0 0 0 0 0 0 0 0 0 0 0 0 0 0 0.5 0"/>
<feBlend mode="normal" in2="BackgroundImageFix" result="effect1_dropShadow_1_86"/>
<feBlend mode="normal" in="SourceGraphic" in2="effect1_dropShadow_1_86" result="shape"/>
</filter>
<linearGradient id="paint0_linear_1_86" x1="191.5" y1="30" x2="191.5" y2="121" gradientUnits="userSpaceOnUse">
<stop stop-color="#F2FF00"/>
<stop offset="1" stop-color="#919900"/>
</linearGradient>
<linearGradient id="paint1_linear_1_86" x1="191.5" y1="121" x2="191.5" y2="212" gradientUnits="userSpaceOnUse">
<stop stop-color="#F2FF00"/>
<stop offset="1" stop-color="#919900"/>
</linearGradient>
</defs>
</svg>
